<svg width="14" height="16" viewBox="0 0 14 16" fill="none" xmlns="http://www.w3.org/2000/svg">
<path d="M12.9528 4.57573C12.2282 1.42061 9.44691 0.00012207 7.0038 0.00012207C7.0038 0.00012207 7.0038 0.00012207 6.9969 0.00012207C4.5607 0.00012207 1.77252 1.41378 1.04787 4.5689C0.240404 8.0928 2.89507 11.4552 4.00035 12.9999C5.10563 14.5445 6.50035 15.9999 7.00035 15.9999C7.50035 15.9999 8.89505 14.5445 10.0003 12.9999C11.1056 11.4552 13.7603 8.09963 12.9528 4.57573ZM7.0038 7.9972C5.80295 7.9972 4.82985 7.03427 4.82985 5.84598C4.82985 4.65768 5.80295 3.69476 7.0038 3.69476C8.20465 3.69476 9.17775 4.65768 9.17775 5.84598C9.17775 7.03427 8.20465 7.9972 7.0038 7.9972Z" fill="#EA4335"/>
</svg>
