<svg width="50" height="50" viewBox="0 0 50 50" fill="none" xmlns="http://www.w3.org/2000/svg">
<path d="M22.0837 8.64567C22.0837 9.0415 21.7503 9.37484 21.3545 9.37484H19.0003C14.5003 9.37484 10.8337 13.0415 10.8337 17.5415V36.7707C10.8337 37.1665 10.5003 37.4998 10.1045 37.4998H8.64616C6.16699 37.4998 4.16699 35.4998 4.16699 33.0207V8.64567C4.16699 6.1665 6.16699 4.1665 8.64616 4.1665H17.6045C20.0837 4.1665 22.0837 6.1665 22.0837 8.64567Z" fill="#778187"/>
<path d="M45.8337 8.64567V33.0207C45.8337 35.4998 43.8337 37.4998 41.3545 37.4998H40.042C39.6462 37.4998 39.3128 37.1665 39.3128 36.7707V17.5415C39.3128 13.0415 35.6462 9.37484 31.1462 9.37484H28.6462C28.2503 9.37484 27.917 9.0415 27.917 8.64567C27.917 6.1665 29.917 4.1665 32.3962 4.1665H41.3545C43.8337 4.1665 45.8337 6.1665 45.8337 8.64567Z" fill="#778187"/>
<path d="M31.1455 12.5H18.9997C16.208 12.5 13.958 14.75 13.958 17.5417V40.7917C13.958 43.5833 16.208 45.8333 18.9997 45.8333H22.3955C22.9788 45.8333 23.4372 45.375 23.4372 44.7917V39.5833C23.4372 38.7292 24.1455 38.0208 24.9997 38.0208C25.8538 38.0208 26.5622 38.7292 26.5622 39.5833V44.7917C26.5622 45.375 27.0205 45.8333 27.6038 45.8333H31.1663C33.9372 45.8333 36.1872 43.5833 36.1872 40.8125V17.5417C36.1872 14.75 33.9372 12.5 31.1455 12.5ZM29.1663 30.7292H20.833C19.9788 30.7292 19.2705 30.0208 19.2705 29.1667C19.2705 28.3125 19.9788 27.6042 20.833 27.6042H29.1663C30.0205 27.6042 30.7288 28.3125 30.7288 29.1667C30.7288 30.0208 30.0205 30.7292 29.1663 30.7292ZM29.1663 24.4792H20.833C19.9788 24.4792 19.2705 23.7708 19.2705 22.9167C19.2705 22.0625 19.9788 21.3542 20.833 21.3542H29.1663C30.0205 21.3542 30.7288 22.0625 30.7288 22.9167C30.7288 23.7708 30.0205 24.4792 29.1663 24.4792Z" fill="#778187"/>
</svg>
