<svg width="36" height="45" viewBox="0 0 36 45" fill="none" xmlns="http://www.w3.org/2000/svg">
<path d="M20.5872 42.2553C19.1341 43.6775 16.8659 43.6775 15.4128 42.2553C10.4323 37.3807 2.69708e-06 26.2669 3.02789e-06 18.6987C3.46243e-06 8.7576 8.05888 0.698729 18 0.69873C27.9411 0.69873 36 8.7576 36 18.6987C36 26.2669 25.5677 37.3807 20.5872 42.2553Z" fill="#EA4335"/>
<path d="M19.1675 6.69873L21.526 10.7896L17.936 12.609C13.9947 14.6057 12.5336 19.5072 14.7322 23.3442L18.0786 29.1953H12.6415L10.6726 25.7862C7.09649 19.5837 9.45155 11.6384 15.8314 8.39632L19.1675 6.69873Z" fill="white"/>
<path d="M19.7196 29.1986H25.1045L20.0396 20.3384C19.6326 19.6288 19.8309 18.7243 20.4953 18.2477L23.0556 22.69L27.223 20.5715L22.2764 11.9966L18.5125 13.9133C15.2877 15.5553 14.1085 19.5766 15.9313 22.7074L19.7196 29.1986Z" fill="white"/>
</svg>
