<svg width="30" height="30" viewBox="0 0 30 30" fill="none" xmlns="http://www.w3.org/2000/svg">
<path fill-rule="evenodd" clip-rule="evenodd" d="M5 3.92628C5 2.86265 5.86222 2.0004 6.92585 2.00036L17 2L25 10V26.0744C25 27.1381 24.1377 28.0003 23.0741 28.0003H6.92592C5.86226 28.0003 5 27.1381 5 26.0744V3.92628Z" fill="url(#paint0_linear_3000_12982)"/>
<path opacity="0.720959" fill-rule="evenodd" clip-rule="evenodd" d="M25 10H18.9259C17.8623 10 17 9.13774 17 8.07408V2L25 10Z" fill="url(#paint1_linear_3000_12982)"/>
<path fill-rule="evenodd" clip-rule="evenodd" d="M16.3987 15.714C16.7764 16.1233 17 16.84 17 17.5731C17 18.3061 16.7764 18.8701 16.3987 19.2794C15.6768 20.0614 14.468 20.2126 13.4649 20.0733L13.4329 20.0686L13.4199 20.0666L13.4187 20.0664L13 19.9966V14.9968L13.4178 14.9272L13.4199 14.9268C14.4422 14.7745 15.6605 14.9143 16.3987 15.714ZM14 15.8807C14.5685 15.8673 15.2563 15.9508 15.6638 16.3923C15.8486 16.5924 16 17.0561 16 17.5731C16 18.09 15.8486 18.401 15.6638 18.6011C15.4701 18.811 15.1954 18.9463 14.8787 19.0255C14.5701 19.1026 14.2518 19.1187 14 19.1128V15.8807Z" fill="white"/>
<path fill-rule="evenodd" clip-rule="evenodd" d="M10 15H9V20H10V18H10.5C11.2392 18 12 17.423 12 16.5C12 15.5771 11.2387 15 10.4996 15H10ZM10 16V17H10.4996C10.7604 17 11 16.7995 11 16.5C11 16.2005 10.7608 16 10.5 16H10Z" fill="white"/>
<path fill-rule="evenodd" clip-rule="evenodd" d="M18 20V15H19H21V16H19V17H21V18H19V20H18Z" fill="white"/>
<defs>
<linearGradient id="paint0_linear_3000_12982" x1="23.4262" y1="28.0003" x2="23.4262" y2="2.00043" gradientUnits="userSpaceOnUse">
<stop stop-color="#FF887D"/>
<stop offset="1" stop-color="#FD4638"/>
</linearGradient>
<linearGradient id="paint1_linear_3000_12982" x1="22.0974" y1="-1.36313" x2="15.3893" y2="4.86952" gradientUnits="userSpaceOnUse">
<stop stop-color="white" stop-opacity="0.574547"/>
<stop offset="1" stop-color="white" stop-opacity="0.763248"/>
</linearGradient>
</defs>
</svg>
