<svg width="26" height="26" viewBox="0 0 26 26" fill="none" xmlns="http://www.w3.org/2000/svg">
<path d="M6.16371 10.0674C6 10.7016 6 11.5255 6 12.9999C6 14.671 6 15.5066 6.23836 16.1772C6.65435 17.3477 7.57528 18.2686 8.74575 18.6846C9.41643 18.923 10.252 18.923 11.9231 18.923H14.0769C15.748 18.923 16.5836 18.923 17.2542 18.6846C18.4247 18.2686 19.3457 17.3477 19.7616 16.1772C20 15.5066 20 14.671 20 12.9999C20 11.5255 20 10.7016 19.8363 10.0674L17.1311 12.0608C16.3314 12.65 15.7013 13.1144 15.1553 13.4435C14.5959 13.7806 14.0873 13.9997 13.5232 14.0718C13.176 14.1161 12.8246 14.1161 12.4774 14.0718C11.9133 13.9998 11.4047 13.7807 10.8453 13.4436C10.2993 13.1145 9.66912 12.6502 8.86944 12.061L6.16371 10.0674Z" fill="#EA4335"/>
<path d="M6.60449 9.05424L9.48677 11.1779C10.3127 11.7865 10.9031 12.2208 11.4012 12.521C11.8909 12.8161 12.2535 12.9573 12.6139 13.0033C12.8705 13.0361 13.1302 13.0361 13.3869 13.0033C13.7472 12.9573 14.1098 12.816 14.5995 12.5209C15.0976 12.2207 15.6879 11.7864 16.5139 11.1778L19.3957 9.05424C18.9069 8.25335 18.1544 7.6349 17.2543 7.31502C16.5837 7.07666 15.7481 7.07666 14.077 7.07666L11.9232 7.07666C10.2521 7.07666 9.41652 7.07666 8.74584 7.31502C7.8458 7.6349 7.0933 8.25334 6.60449 9.05424Z" fill="#EA4335"/>
</svg>
