<svg width="34" height="34" viewBox="0 0 34 34" fill="none" xmlns="http://www.w3.org/2000/svg">
<path d="M17 0C7.65497 0 0 7.55555 0 17C0 26.345 7.55555 34 17 34C26.345 34 34 26.4444 34 17C34 7.55555 26.345 0 17 0ZM17 32.6082C8.35088 32.6082 1.39181 25.6491 1.39181 17C1.39181 8.35088 8.35088 1.39181 17 1.39181C25.6491 1.39181 32.6082 8.35088 32.6082 17C32.7076 25.5497 25.6491 32.6082 17 32.6082Z" fill="#4E5A61"/>
<path d="M17 29.626C17.5965 29.626 17.8947 29.2283 17.9941 28.7312C18.0935 28.9301 18.2924 29.1289 18.4912 29.2283C18.69 29.2283 18.9883 29.2283 19.1871 29.1289C19.3859 29.0295 19.5848 28.8307 19.6842 28.6318C19.7836 28.433 19.7836 28.1347 19.6842 27.9359C19.9824 28.3336 20.3801 28.433 20.8772 28.2342C21.4737 27.9359 21.6725 27.5382 21.3742 26.9418C20.6783 25.2517 19.9824 23.6611 19.2865 21.971C19.1871 21.7722 19.1871 21.6728 19.0877 21.4739C18.9883 21.3745 18.9883 21.2751 18.8889 21.1757C18.8889 21.0763 18.7894 21.0763 18.69 20.9768C19.7836 21.0763 20.2807 21.4739 20.5789 21.6728C20.6783 21.7722 20.6783 21.7722 20.9766 21.6728C21.076 21.6728 21.2748 21.6728 21.3742 21.6728C21.4737 21.7722 21.6725 21.8716 21.7719 21.8716C22.1696 22.1698 22.5672 22.4681 22.9649 22.7663C23.1637 22.9652 23.3625 23.164 23.3625 23.4622C23.3625 23.6611 22.766 24.1581 22.6666 24.357C22.269 24.7546 22.8655 25.3511 23.6608 25.3511C23.462 25.1523 23.3625 24.9535 23.462 24.7546C23.5614 24.7546 23.6608 24.7546 23.8596 24.6552C24.0584 24.5558 23.959 24.0587 24.0584 23.9593C24.3567 23.6611 25.152 23.6611 25.7485 23.6611C25.9473 23.6611 26.2456 23.5616 26.1462 23.2634C26.4444 23.2634 26.5438 23.5616 26.5438 23.7605C26.8421 23.5616 27.0409 22.8657 26.0467 22.6669C26.2456 22.4681 26.5438 22.4681 26.7427 22.6669C26.9415 22.3687 26.4444 21.8716 25.6491 22.1698C25.6491 22.1698 25.2514 21.6728 24.2573 22.8657C24.1579 22.7663 23.959 22.6669 23.8596 22.5675C23.462 22.1698 22.4678 21.1757 22.4678 21.1757C22.4678 20.5792 22.3684 19.4856 21.6725 18.8891C21.3742 18.5909 21.076 18.4915 20.3801 18.2926C20.3801 18.2926 20.6783 17.7956 20.7777 17.5967C21.3742 18.1932 22.5672 18.392 22.5672 17.3979C23.5614 18.392 24.4561 17.7956 24.4561 17.1991C24.4561 17.4973 24.5555 17.7956 24.6549 18.0938C24.7543 18.3921 25.2514 19.6845 26.345 19.6845C26.345 20.0821 26.345 21.5733 27.7368 21.8716C27.8362 21.8716 27.8362 21.8716 27.9356 21.971C28.5321 22.6669 30.8187 23.3628 31.0175 23.164C30.8187 23.0646 30.5204 22.8657 30.5204 22.0704C30.5204 21.5733 30.421 18.7897 30.421 14.9125C30.421 13.5207 30.3216 9.04702 25.8479 8.45053C25.152 8.35111 24.5555 8.45053 23.959 8.84819C23.1637 9.44468 22.766 10.4388 23.2631 11.5324V11.6318C23.462 11.9301 23.3625 12.1289 23.1637 12.3277C22.766 12.7254 22.3684 12.9242 21.8713 13.0236C21.5731 13.0236 21.2748 12.9242 21.076 12.7254C20.5789 12.2283 20.2807 11.6318 20.0818 10.9359C19.883 9.64351 20.1812 8.94761 20.1812 8.84819C20.5789 8.15228 21.2748 7.55579 22.1696 7.55579C22.5672 6.76047 23.7602 7.05871 23.7602 7.05871C24.0584 7.15813 24.1579 7.15813 24.2573 7.35696C24.2573 7.35696 24.7543 6.56164 24.2573 6.2634C23.7602 5.96515 22.6666 5.86573 22.6666 5.86573C22.6666 5.36866 21.8713 4.971 20.2807 5.26924C18.4912 5.56749 18.0935 4.87158 18.0935 4.87158C17.9941 5.76632 18.69 6.16398 18.8889 6.36281C18.1929 7.15813 17.1988 8.64936 17 10.7371C16.8011 8.64936 15.807 7.15813 15.1111 6.36281C15.3099 6.26339 16.0058 5.76632 15.9064 4.87158C15.9064 4.87158 15.5087 5.56749 13.7193 5.26924C12.228 4.971 11.3333 5.36866 11.3333 5.86573C11.3333 5.86573 10.2397 5.96515 9.74265 6.2634C9.24558 6.56164 9.74265 7.35696 9.74265 7.35696C9.84207 7.25755 9.94148 7.15813 10.2397 7.05871C10.2397 7.05871 11.4327 6.76047 11.8304 7.55579C12.7251 7.65521 13.421 8.15228 13.8187 8.84819C13.8187 8.84819 14.2163 9.5441 13.9181 10.9359C13.8187 11.6318 13.421 12.2283 12.9239 12.7254C12.7251 12.9242 12.4269 13.123 12.1286 13.0236C11.6315 12.9242 11.2339 12.7254 10.8362 12.3277C10.6374 12.1289 10.538 11.9301 10.7368 11.6318V11.5324C11.2339 10.4388 10.8362 9.44468 10.0409 8.84819C9.44441 8.45053 8.84792 8.35111 8.15201 8.45053C3.77774 9.04702 3.57891 13.5207 3.57891 14.9125C3.57891 18.7897 3.4795 21.5733 3.4795 22.0704C3.4795 22.8657 3.18125 23.0646 2.98242 23.164C3.28067 23.3628 5.56722 22.6669 6.06429 21.971C6.06429 21.971 6.1637 21.8716 6.26312 21.8716C7.65493 21.5733 7.65493 20.0821 7.65493 19.6845C8.7485 19.6845 9.24557 18.3921 9.34499 18.0938C9.4444 17.7956 9.54382 17.4973 9.54382 17.1991C9.54382 17.7956 10.4386 18.2926 11.4327 17.3979C11.4327 18.392 12.6257 18.1932 13.2222 17.5967C13.3216 17.7956 13.6198 18.2926 13.6198 18.2926C12.9239 18.3921 12.6257 18.5909 12.3274 18.8891C11.5321 19.585 11.5321 20.6786 11.5321 21.1757C11.5321 21.1757 10.538 22.1698 10.1403 22.5675C10.0409 22.6669 9.84207 22.7663 9.74265 22.8657C8.64908 21.6728 8.35084 22.1698 8.35084 22.1698C7.55552 21.8716 7.15786 22.3687 7.25727 22.6669C7.4561 22.4681 7.75435 22.5675 7.95318 22.6669C6.85962 22.8657 7.15786 23.6611 7.45611 23.7605C7.45611 23.5616 7.55552 23.2634 7.85376 23.2634C7.85376 23.5616 8.05259 23.6611 8.25142 23.6611C8.7485 23.6611 9.64324 23.6611 9.94149 23.9593C10.1403 24.0587 10.0409 24.5558 10.1403 24.6552C10.2397 24.7546 10.4386 24.7546 10.538 24.7546C10.538 24.9535 10.538 25.0529 10.3391 25.3511C11.1345 25.4505 11.6315 24.7546 11.3333 24.357C11.1345 24.1581 10.6374 23.6611 10.6374 23.4622C10.6374 23.2634 10.8362 22.9652 11.0351 22.7663C11.4327 22.4681 11.8304 22.1698 12.228 21.8716C12.3274 21.7722 12.4269 21.6728 12.6257 21.6728C12.7251 21.5733 12.9239 21.5733 13.0234 21.6728C13.3216 21.7722 13.3216 21.7722 13.421 21.6728C13.7193 21.4739 14.2163 21.0763 15.3099 20.9768C15.2105 20.9768 15.2105 21.0763 15.1111 21.1757C15.0117 21.2751 15.0117 21.3745 14.9122 21.4739C14.8128 21.5733 14.8128 21.7722 14.7134 21.971C14.0175 23.6611 13.3216 25.2517 12.6257 26.9418C12.4269 27.5382 12.6257 27.9359 13.1228 28.2342C13.5204 28.433 14.0175 28.3336 14.3158 27.9359C14.2163 28.2342 14.2163 28.433 14.3158 28.6318C14.4152 28.8307 14.614 29.0295 14.8128 29.1289C15.0117 29.2283 15.3099 29.2283 15.5087 29.2283C15.807 29.1289 15.9064 29.0295 16.0058 28.7312C16.1052 29.2283 16.4035 29.626 17 29.626Z" fill="#4E5A61"/>
</svg>
