<svg width="27" height="26" viewBox="0 0 27 26" fill="none" xmlns="http://www.w3.org/2000/svg">
<g clip-path="url(#clip0_6711_21123)">
<path d="M11.4442 9.99005C12.3012 9.99005 12.9959 9.29535 12.9959 8.43839C12.9959 7.58142 12.3012 6.88672 11.4442 6.88672C10.5873 6.88672 9.89258 7.58142 9.89258 8.43839C9.89258 9.29535 10.5873 9.99005 11.4442 9.99005Z" fill="#778187"/>
<path d="M16.8812 12.7527C18.7459 12.7527 20.2575 11.241 20.2575 9.37633C20.2575 7.51164 18.7459 6 16.8812 6C15.0165 6 13.5049 7.51164 13.5049 9.37633C13.5049 11.241 15.0165 12.7527 16.8812 12.7527Z" fill="#778187"/>
<path d="M10.6533 18.8335C12.9472 18.8335 14.8067 16.974 14.8067 14.6802C14.8067 12.3864 12.9472 10.5269 10.6533 10.5269C8.35951 10.5269 6.5 12.3864 6.5 14.6802C6.5 16.974 8.35951 18.8335 10.6533 18.8335Z" fill="#778187"/>
<path d="M17.8521 18.3106C19.2374 18.3106 20.3604 17.1876 20.3604 15.8023C20.3604 14.417 19.2374 13.2939 17.8521 13.2939C16.4668 13.2939 15.3438 14.417 15.3438 15.8023C15.3438 17.1876 16.4668 18.3106 17.8521 18.3106Z" fill="#778187"/>
</g>
<defs>
<clipPath id="clip0_6711_21123">
<rect width="14" height="14" fill="white" transform="translate(6.5 6)"/>
</clipPath>
</defs>
</svg>
