<svg width="27" height="26" viewBox="0 0 27 26" fill="none" xmlns="http://www.w3.org/2000/svg">
<path d="M9.36948 7.51807C10.3926 7.51807 11.239 8.35175 11.239 9.38755C11.239 10.4107 10.4053 11.257 9.36948 11.257C8.34632 11.257 7.5 10.4233 7.5 9.38755C7.5 8.35175 8.33369 7.51807 9.36948 7.51807ZM9.52106 17.8002C9.33159 17.9897 9.09158 18.0781 8.85158 18.0781C8.61158 18.0781 8.37158 17.9897 8.18211 17.8002C7.81579 17.4339 7.81579 16.8276 8.18211 16.4613L16.4558 8.18754C16.8221 7.82123 17.4285 7.82123 17.7948 8.18754C18.1611 8.55386 18.1611 9.16018 17.7948 9.52649L9.52106 17.8002ZM17.6306 18.4823C16.6074 18.4823 15.7611 17.6486 15.7611 16.6128C15.7611 15.5897 16.5948 14.7434 17.6306 14.7434C18.6537 14.7434 19.5 15.577 19.5 16.6128C19.5 17.6486 18.6664 18.4823 17.6306 18.4823Z" fill="#778187"/>
</svg>
