<svg width="27" height="26" viewBox="0 0 27 26" fill="none" xmlns="http://www.w3.org/2000/svg">
<path d="M19.4528 9.57561C18.7282 6.42049 15.9469 5 13.5038 5C13.5038 5 13.5038 5 13.4969 5C11.0607 5 8.27252 6.41366 7.54787 9.56878C6.7404 13.0927 9.39507 16.4551 10.5004 17.9998C11.6056 19.5444 13.0003 20.9998 13.5003 20.9998C14.0003 20.9998 15.395 19.5444 16.5003 17.9998C17.6056 16.4551 20.2603 13.0995 19.4528 9.57561ZM13.5038 12.9971C12.303 12.9971 11.3299 12.0341 11.3299 10.8459C11.3299 9.65756 12.303 8.69463 13.5038 8.69463C14.7046 8.69463 15.6778 9.65756 15.6778 10.8459C15.6778 12.0341 14.7046 12.9971 13.5038 12.9971Z" fill="#778187"/>
</svg>
