<svg width="27" height="26" viewBox="0 0 27 26" fill="none" xmlns="http://www.w3.org/2000/svg">
<path d="M16.3498 5.65737C16.0423 5.34987 15.5098 5.55987 15.5098 5.98737V8.60487C15.5098 9.69987 16.4398 10.6074 17.5723 10.6074C18.2848 10.6149 19.2748 10.6149 20.1223 10.6149C20.5498 10.6149 20.7748 10.1124 20.4748 9.81237C19.3948 8.72487 17.4598 6.76737 16.3498 5.65737Z" fill="#778187"/>
<path d="M19.875 11.6425H17.7075C15.93 11.6425 14.4825 10.195 14.4825 8.4175V6.25C14.4825 5.8375 14.145 5.5 13.7325 5.5H10.5525C8.2425 5.5 6.375 7 6.375 9.6775V16.3225C6.375 19 8.2425 20.5 10.5525 20.5H16.4475C18.7575 20.5 20.625 19 20.625 16.3225V12.3925C20.625 11.98 20.2875 11.6425 19.875 11.6425ZM13.125 17.3125H10.125C9.8175 17.3125 9.5625 17.0575 9.5625 16.75C9.5625 16.4425 9.8175 16.1875 10.125 16.1875H13.125C13.4325 16.1875 13.6875 16.4425 13.6875 16.75C13.6875 17.0575 13.4325 17.3125 13.125 17.3125ZM14.625 14.3125H10.125C9.8175 14.3125 9.5625 14.0575 9.5625 13.75C9.5625 13.4425 9.8175 13.1875 10.125 13.1875H14.625C14.9325 13.1875 15.1875 13.4425 15.1875 13.75C15.1875 14.0575 14.9325 14.3125 14.625 14.3125Z" fill="#778187"/>
</svg>
