<svg width="27" height="26" viewBox="0 0 27 26" fill="none" xmlns="http://www.w3.org/2000/svg">
<path d="M18 5.5H9C7.755 5.5 6.75 6.4975 6.75 7.7275V15.91C6.75 17.14 7.755 18.1375 9 18.1375H9.57C10.17 18.1375 10.74 18.37 11.16 18.79L12.4425 20.0575C13.0275 20.635 13.98 20.635 14.565 20.0575L15.8475 18.79C16.2675 18.37 16.845 18.1375 17.4375 18.1375H18C19.245 18.1375 20.25 17.14 20.25 15.91V7.7275C20.25 6.4975 19.245 5.5 18 5.5ZM13.5 8.3125C14.4675 8.3125 15.2475 9.0925 15.2475 10.06C15.2475 11.0275 14.4675 11.8075 13.5 11.8075C12.5325 11.8075 11.7525 11.02 11.7525 10.06C11.7525 9.0925 12.5325 8.3125 13.5 8.3125ZM15.51 15.295H11.49C10.8825 15.295 10.53 14.62 10.8675 14.1175C11.3775 13.36 12.3675 12.85 13.5 12.85C14.6325 12.85 15.6225 13.36 16.1325 14.1175C16.47 14.62 16.11 15.295 15.51 15.295Z" fill="#778187"/>
</svg>
