<svg width="27" height="26" viewBox="0 0 27 26" fill="none" xmlns="http://www.w3.org/2000/svg">
<path d="M18.4046 7.08988L14.2796 5.54488C13.8521 5.38738 13.1546 5.38738 12.7271 5.54488L8.60211 7.08988C7.80711 7.38988 7.16211 8.31988 7.16211 9.16738V15.2424C7.16211 15.8499 7.55961 16.6524 8.04711 17.0124L12.1721 20.0949C12.8996 20.6424 14.0921 20.6424 14.8196 20.0949L18.9446 17.0124C19.4321 16.6449 19.8296 15.8499 19.8296 15.2424V9.16738C19.8371 8.31988 19.1921 7.38988 18.4046 7.08988ZM16.1096 11.2899L12.8846 14.5149C12.7721 14.6274 12.6296 14.6799 12.4871 14.6799C12.3446 14.6799 12.2021 14.6274 12.0896 14.5149L10.8896 13.2999C10.6721 13.0824 10.6721 12.7224 10.8896 12.5049C11.1071 12.2874 11.4671 12.2874 11.6846 12.5049L12.4946 13.3149L15.3221 10.4874C15.5396 10.2699 15.8996 10.2699 16.1171 10.4874C16.3346 10.7049 16.3346 11.0724 16.1096 11.2899Z" fill="#778187"/>
</svg>
