<svg width="27" height="26" viewBox="0 0 27 26" fill="none" xmlns="http://www.w3.org/2000/svg">
<path d="M19.0797 19.4932C17.5355 21.0374 13.581 19.5865 10.2471 16.2525C6.9131 12.9185 5.46217 8.96405 7.00631 7.41989L8.02302 6.40319C8.72491 5.7013 9.88145 5.71985 10.6062 6.44463L12.181 8.01941C12.9058 8.74419 12.9243 9.90073 12.2224 10.6026L12.0041 10.821C11.6251 11.2 11.588 11.8113 11.9402 12.238C12.2798 12.6496 12.646 13.0596 13.043 13.4566C13.44 13.8536 13.85 14.2198 14.2616 14.5594C14.6883 14.9115 15.2996 14.8745 15.6786 14.4955L15.8969 14.2771C16.5988 13.5752 17.7554 13.5938 18.4802 14.3186L20.0549 15.8933C20.7797 16.6181 20.7983 17.7747 20.0964 18.4765L19.0797 19.4932Z" fill="#778187"/>
</svg>
