<svg width="26" height="26" viewBox="0 0 26 26" fill="none" xmlns="http://www.w3.org/2000/svg">
<path d="M8.18493 3.37036H7.22197C4.33308 3.37036 3.37012 5.09406 3.37012 7.22221V8.18518V21.6667C3.37012 22.4659 4.2753 22.9185 4.91086 22.437L6.55752 21.2044C6.94271 20.9155 7.48197 20.9541 7.82864 21.3007L9.42715 22.9089C9.80271 23.2844 10.419 23.2844 10.7946 22.9089L12.4123 21.2911C12.7494 20.9541 13.2886 20.9155 13.6642 21.2044L15.3109 22.437C15.9464 22.9089 16.8516 22.4563 16.8516 21.6667V5.29629C16.8516 4.23703 17.7183 3.37036 18.7775 3.37036H8.18493ZM7.77086 9.17703C8.30049 9.17703 8.73382 9.61036 8.73382 10.14C8.73382 10.6696 8.30049 11.103 7.77086 11.103C7.24123 11.103 6.8079 10.6696 6.8079 10.14C6.8079 9.61036 7.24123 9.17703 7.77086 9.17703ZM12.4509 15.003C11.9116 15.003 11.4879 14.5696 11.4879 14.04C11.4879 13.5104 11.9212 13.077 12.4509 13.077C12.9805 13.077 13.4138 13.5104 13.4138 14.04C13.4138 14.5696 12.9805 15.003 12.4509 15.003ZM13.2501 9.91851L7.99234 15.1763C7.8479 15.3207 7.66493 15.3881 7.48197 15.3881C7.29901 15.3881 7.11604 15.3207 6.9716 15.1763C6.69234 14.897 6.69234 14.4348 6.9716 14.1555L12.2294 8.89777C12.5086 8.61851 12.9709 8.61851 13.2501 8.89777C13.5294 9.17703 13.5294 9.63925 13.2501 9.91851Z" fill="#778187"/>
<path d="M18.7871 3.37036V4.81481C19.4227 4.81481 20.0293 5.07481 20.4723 5.50814C20.9345 5.97999 21.1849 6.58666 21.1849 7.22221V9.55258C21.1849 10.2652 20.8671 10.5926 20.1449 10.5926H18.296V5.30592C18.296 5.03629 18.5175 4.81481 18.7871 4.81481V3.37036ZM18.7871 3.37036C17.7182 3.37036 16.8516 4.23703 16.8516 5.30592V12.037H20.1449C21.6664 12.037 22.6293 11.0741 22.6293 9.55258V7.22221C22.6293 6.16295 22.196 5.19999 21.5027 4.49703C20.7997 3.80369 19.8464 3.37999 18.7871 3.37036C18.7967 3.37036 18.7871 3.37036 18.7871 3.37036Z" fill="#778187"/>
</svg>
