<svg width="14" height="16" viewBox="0 0 14 16" fill="none" xmlns="http://www.w3.org/2000/svg">
<path d="M12.9528 4.57561C12.2282 1.42049 9.44691 0 7.0038 0C7.0038 0 7.0038 0 6.9969 0C4.5607 0 1.77252 1.41366 1.04787 4.56878C0.240404 8.09268 2.89507 11.4551 4.00035 12.9998C5.10563 14.5444 6.50035 15.9998 7.00035 15.9998C7.50035 15.9998 8.89505 14.5444 10.0003 12.9998C11.1056 11.4551 13.7603 8.09951 12.9528 4.57561ZM7.0038 7.99707C5.80295 7.99707 4.82985 7.03415 4.82985 5.84585C4.82985 4.65756 5.80295 3.69463 7.0038 3.69463C8.20465 3.69463 9.17775 4.65756 9.17775 5.84585C9.17775 7.03415 8.20465 7.99707 7.0038 7.99707Z" fill="#9CA4A9"/>
</svg>
