<svg width="24" height="19" viewBox="0 0 24 19" fill="none" xmlns="http://www.w3.org/2000/svg">
<path d="M0 5.96396V4.71887C0 3.33268 0.464646 2.27021 1.39394 1.53145C2.33131 0.784404 3.51515 0.410878 4.94545 0.410878C6.4 0.410878 7.58384 0.788554 8.49697 1.54391C9.41818 2.29096 9.87879 3.34928 9.87879 4.71887V5.96396C9.87879 7.51616 9.40202 8.67409 8.44848 9.43775C7.49495 10.1931 6.32727 10.5708 4.94545 10.5708C3.56364 10.5708 2.39192 10.1931 1.4303 9.43775C0.476768 8.67409 0 7.51616 0 5.96396ZM2.82424 6.28768C2.82424 7.01813 3.00606 7.56182 3.3697 7.91874C3.73333 8.27567 4.25859 8.45413 4.94545 8.45413C5.6404 8.45413 6.16162 8.27567 6.50909 7.91874C6.86465 7.56182 7.04242 7.01813 7.04242 6.28768V4.58191C7.04242 3.97597 6.87677 3.49039 6.54545 3.12516C6.22222 2.75164 5.68889 2.56488 4.94545 2.56488C4.2101 2.56488 3.67273 2.75164 3.33333 3.12516C2.99394 3.49039 2.82424 3.97597 2.82424 4.58191V6.28768ZM19.4424 1.29489L6.94545 19L4.66667 17.618L17.103 0L19.4424 1.29489ZM14.1212 14.306V13.0609C14.1212 11.6747 14.5859 10.6123 15.5152 9.87353C16.4525 9.12648 17.6364 8.75295 19.0667 8.75295C20.5212 8.75295 21.705 9.13063 22.6182 9.88598C23.5394 10.633 24 11.6913 24 13.0609V14.306C24 15.8582 23.5232 17.0162 22.5697 17.7798C21.6162 18.5352 20.4485 18.9128 19.0667 18.9128C17.6848 18.9128 16.5131 18.5352 15.5515 17.7798C14.598 17.0162 14.1212 15.8582 14.1212 14.306ZM16.9455 14.6298C16.9455 15.3602 17.1273 15.9039 17.4909 16.2608C17.8545 16.6177 18.3798 16.7962 19.0667 16.7962C19.7616 16.7962 20.2828 16.6177 20.6303 16.2608C20.9859 15.9039 21.1636 15.3602 21.1636 14.6298V12.924C21.1636 12.318 20.998 11.8325 20.6667 11.4672C20.3434 11.0937 19.8101 10.9069 19.0667 10.9069C18.3313 10.9069 17.7939 11.0937 17.4545 11.4672C17.1152 11.8325 16.9455 12.318 16.9455 12.924V14.6298Z" fill="#EA4335"/>
</svg>
