<svg width="16" height="16" viewBox="0 0 16 16" fill="none" xmlns="http://www.w3.org/2000/svg">
<path d="M13.5797 14.4935C12.0355 16.0376 8.08103 14.5867 4.74706 11.2528C1.4131 7.91879 -0.0378342 3.96429 1.50631 2.42014L2.52302 1.40343C3.22491 0.701543 4.38145 0.720096 5.10622 1.44487L6.68101 3.01966C7.40578 3.74443 7.42434 4.90097 6.72245 5.60286L6.50407 5.82124C6.12511 6.2002 6.08804 6.81153 6.44016 7.23825C6.77981 7.64983 7.14598 8.0598 7.54299 8.45682C7.94001 8.85384 8.34998 9.22 8.76157 9.55965C9.18828 9.91177 9.79961 9.8747 10.1786 9.49574L10.3969 9.27736C11.0988 8.57547 12.2554 8.59403 12.9802 9.3188L14.5549 10.8936C15.2797 11.6184 15.2983 12.7749 14.5964 13.4768L13.5797 14.4935Z" fill="#EA4335"/>
</svg>
