<svg width="51" height="50" viewBox="0 0 51 50" fill="none" xmlns="http://www.w3.org/2000/svg">
<path d="M19.0003 4.1665C13.542 4.1665 9.10449 8.604 9.10449 14.0623C9.10449 19.4165 13.292 23.7498 18.7503 23.9373C18.917 23.9165 19.0837 23.9165 19.2087 23.9373C19.2503 23.9373 19.2712 23.9373 19.3128 23.9373C19.3337 23.9373 19.3337 23.9373 19.3545 23.9373C24.6878 23.7498 28.8753 19.4165 28.8962 14.0623C28.8962 8.604 24.4587 4.1665 19.0003 4.1665Z" fill="#778187"/>
<path d="M29.583 29.479C23.7705 25.604 14.2913 25.604 8.43717 29.479C5.79134 31.2498 4.33301 33.6457 4.33301 36.2082C4.33301 38.7707 5.79134 41.1457 8.41634 42.8957C11.333 44.854 15.1663 45.8332 18.9997 45.8332C22.833 45.8332 26.6663 44.854 29.583 42.8957C32.208 41.1248 33.6663 38.7498 33.6663 36.1665C33.6455 33.604 32.208 31.229 29.583 29.479Z" fill="#778187"/>
<path d="M41.8955 15.2917C42.2288 19.3334 39.3538 22.875 35.3747 23.3542C35.3538 23.3542 35.3538 23.3542 35.333 23.3542H35.2705C35.1455 23.3542 35.0205 23.3542 34.9163 23.3959C32.8955 23.5 31.0413 22.8542 29.6455 21.6667C31.7913 19.75 33.0205 16.875 32.7705 13.75C32.6247 12.0625 32.0413 10.5209 31.1663 9.20838C31.958 8.81255 32.8747 8.56255 33.8122 8.47921C37.8955 8.12505 41.5413 11.1667 41.8955 15.2917Z" fill="#778187"/>
<path d="M46.0632 34.5627C45.8965 36.5835 44.6048 38.3335 42.4382 39.521C40.3548 40.6668 37.7298 41.2085 35.1257 41.146C36.6257 39.7918 37.5006 38.1043 37.6673 36.3127C37.8756 33.7293 36.6465 31.2502 34.1882 29.271C32.7923 28.1668 31.1673 27.2918 29.3965 26.646C34.0007 25.3127 39.7923 26.2085 43.3548 29.0835C45.2715 30.6252 46.2507 32.5627 46.0632 34.5627Z" fill="#778187"/>
</svg>
