<svg width="14" height="14" viewBox="0 0 14 14" fill="none" xmlns="http://www.w3.org/2000/svg">
<path d="M5.97155 1.35153C6.43794 0.576547 7.5615 0.576548 8.02789 1.35153L9.32383 3.50495C9.49139 3.78336 9.76468 3.98192 10.0812 4.05524L12.5297 4.62231C13.4109 4.8264 13.7581 5.89496 13.1652 6.57801L11.5176 8.47597C11.3046 8.72135 11.2002 9.04264 11.2283 9.36636L11.4456 11.8702C11.5238 12.7714 10.6149 13.4318 9.78201 13.0789L7.46783 12.0985C7.16863 11.9718 6.83081 11.9718 6.53161 12.0985L4.21742 13.0789C3.38458 13.4318 2.47561 12.7714 2.55381 11.8702L2.77112 9.36636C2.79921 9.04264 2.69482 8.72135 2.48181 8.47597L0.834259 6.57801C0.241329 5.89496 0.588527 4.8264 1.4697 4.62231L3.91819 4.05524C4.23476 3.98192 4.50805 3.78336 4.6756 3.50495L5.97155 1.35153Z" fill="#FBBC05"/>
</svg>
