<svg width="19" height="18" viewBox="0 0 19 18" fill="none" xmlns="http://www.w3.org/2000/svg">
<path d="M5.21963 3.90532L7.84463 6.53032C7.9365 6.62188 8.05052 6.68808 8.17557 6.72246C8.30063 6.75685 8.43247 6.75824 8.55823 6.72652C8.68399 6.6948 8.79939 6.63104 8.89317 6.54145C8.98696 6.45186 9.05594 6.3395 9.09338 6.21532L10.2184 2.46532C10.2573 2.33563 10.2603 2.19784 10.2272 2.06655C10.1941 1.93527 10.126 1.81541 10.0303 1.71967C9.93455 1.62393 9.81468 1.5559 9.6834 1.52278C9.55212 1.48966 9.41433 1.4927 9.28463 1.53157L5.53463 2.65657C5.41074 2.69438 5.2987 2.76355 5.20938 2.85736C5.12007 2.95118 5.05649 3.06647 5.0248 3.19207C4.99312 3.31767 4.99441 3.44933 5.02854 3.57429C5.06267 3.69925 5.1285 3.81327 5.21963 3.90532Z" fill="white"/>
<path d="M4.21989 6.11788C2.93889 7.24363 2.75589 9.24388 3.80889 10.5939C4.86939 11.9529 6.80139 12.1741 8.12589 11.0874L11.7859 8.08438C11.95 7.94954 12.1396 7.8491 12.3434 7.78902C12.5471 7.72894 12.7609 7.71045 12.9719 7.73466C13.1829 7.75888 13.3869 7.82529 13.5718 7.92995C13.7566 8.0346 13.9185 8.17537 14.0479 8.34388C14.6096 9.06388 14.5106 10.1439 13.8281 10.7439L13.0459 11.4309C12.7391 11.7009 12.7039 12.1734 12.9664 12.4884C13.2289 12.8034 13.6909 12.8394 13.9976 12.5694L14.7799 11.8824C16.0609 10.7559 16.2446 8.75788 15.1901 7.40638C14.1311 6.04888 12.1961 5.82688 10.8731 6.91288L7.21314 9.91588C7.04908 10.0509 6.85952 10.1515 6.65574 10.2117C6.45197 10.2719 6.23815 10.2905 6.02706 10.2662C5.81596 10.242 5.6119 10.1756 5.42705 10.0708C5.2422 9.96599 5.08035 9.82506 4.95114 9.65638C4.39089 8.93788 4.48914 7.85638 5.17089 7.25638L5.57739 6.94513C5.88414 6.67513 5.92239 6.20263 5.65989 5.88763C5.59822 5.81296 5.52219 5.75144 5.43629 5.70671C5.35039 5.66199 5.25639 5.63498 5.15985 5.62729C5.06332 5.61959 4.96622 5.63137 4.87432 5.66192C4.78242 5.69247 4.6976 5.74117 4.62489 5.80513L4.21989 6.11788Z" fill="white"/>
<path d="M8 14.25C8 13.6533 8.23705 13.081 8.65901 12.659C9.08097 12.2371 9.65326 12 10.25 12C10.8467 12 11.419 12.2371 11.841 12.659C12.2629 13.081 12.5 13.6533 12.5 14.25C12.5 14.8467 12.2629 15.419 11.841 15.841C11.419 16.2629 10.8467 16.5 10.25 16.5C9.65326 16.5 9.08097 16.2629 8.65901 15.841C8.23705 15.419 8 14.8467 8 14.25Z" fill="white"/>
</svg>
