<svg width="20" height="21" viewBox="0 0 20 21" fill="none" xmlns="http://www.w3.org/2000/svg">
<path d="M15.9528 7.07561C15.2282 3.92049 12.4469 2.5 10.0038 2.5C10.0038 2.5 10.0038 2.5 9.9969 2.5C7.5607 2.5 4.77252 3.91366 4.04787 7.06878C3.2404 10.5927 5.89507 13.9551 7.00035 15.4998C8.10563 17.0444 9.50035 18.4998 10.0003 18.4998C10.5003 18.4998 11.895 17.0444 13.0003 15.4998C14.1056 13.9551 16.7603 10.5995 15.9528 7.07561ZM10.0038 10.4971C8.80295 10.4971 7.82985 9.53415 7.82985 8.34585C7.82985 7.15756 8.80295 6.19463 10.0038 6.19463C11.2046 6.19463 12.1778 7.15756 12.1778 8.34585C12.1778 9.53415 11.2046 10.4971 10.0038 10.4971Z" fill="#778187"/>
</svg>
