<svg width="26" height="26" viewBox="0 0 26 26" fill="none" xmlns="http://www.w3.org/2000/svg">
<path d="M18.5797 19.4932C17.0355 21.0374 13.081 19.5865 9.74706 16.2525C6.4131 12.9185 4.96217 8.96405 6.50631 7.41989L7.52302 6.40319C8.22491 5.7013 9.38145 5.71985 10.1062 6.44463L11.681 8.01941C12.4058 8.74419 12.4243 9.90073 11.7224 10.6026L11.5041 10.821C11.1251 11.2 11.088 11.8113 11.4402 12.238C11.7798 12.6496 12.146 13.0596 12.543 13.4566C12.94 13.8536 13.35 14.2198 13.7616 14.5594C14.1883 14.9115 14.7996 14.8745 15.1786 14.4955L15.3969 14.2771C16.0988 13.5752 17.2554 13.5938 17.9802 14.3186L19.5549 15.8933C20.2797 16.6181 20.2983 17.7747 19.5964 18.4765L18.5797 19.4932Z" fill="#EA4335"/>
</svg>
