<svg width="12" height="15" viewBox="0 0 12 15" fill="none" xmlns="http://www.w3.org/2000/svg">
<path d="M5.54002 1.23838C5.64279 0.738251 6.35727 0.738249 6.46005 1.23837L6.51377 1.4998C7.05863 4.1511 9.01135 6.29128 11.6017 7.07621C12.0209 7.20321 12.0209 7.79662 11.6017 7.92362C9.01135 8.70855 7.05863 10.8487 6.51378 13.5L6.46005 13.7614C6.35727 14.2616 5.64279 14.2616 5.54002 13.7614L5.48629 13.5C4.94143 10.8487 2.98871 8.70855 0.398325 7.92362C-0.020796 7.79662 -0.0207957 7.20321 0.398325 7.07621C2.98871 6.29128 4.94143 4.1511 5.48629 1.4998L5.54002 1.23838Z" fill="url(#paint0_linear_4734_34713)"/>
<defs>
<linearGradient id="paint0_linear_4734_34713" x1="6" y1="-1" x2="6" y2="16" gradientUnits="userSpaceOnUse">
<stop stop-color="#D6A700"/>
<stop offset="1" stop-color="#AC8700"/>
</linearGradient>
</defs>
</svg>
