<svg width="38" height="38" viewBox="0 0 38 38" fill="none" xmlns="http://www.w3.org/2000/svg">
<path fill-rule="evenodd" clip-rule="evenodd" d="M30.2586 31.407L30.2597 31.4042L30.2881 31.3333L35.1778 6.68039V6.60032C35.1778 5.98608 34.9509 5.44984 34.457 5.1282C34.0247 4.84666 33.5278 4.82661 33.1793 4.85306C32.8108 4.88103 32.4633 4.97302 32.2227 5.04959C32.0989 5.08899 31.9953 5.12694 31.9213 5.15565C31.8841 5.17006 31.854 5.18229 31.832 5.1914L31.8105 5.20046L4.54748 15.8953L4.53998 15.898C4.52525 15.9034 4.50578 15.9107 4.48226 15.9198C4.43537 15.9381 4.37155 15.9642 4.29658 15.9982C4.14937 16.0649 3.94598 16.1678 3.7397 16.3091C3.38937 16.549 2.72227 17.117 2.83492 18.0174C2.92822 18.7633 3.44235 19.2369 3.78896 19.4822C3.97476 19.6137 4.15252 19.7085 4.28268 19.7704C4.34864 19.8018 4.40466 19.8259 4.44638 19.8429C4.4673 19.8514 4.48479 19.8582 4.49832 19.8633L4.51565 19.8698L4.52672 19.8739L9.29657 21.4797C9.28047 21.779 9.31015 22.0841 9.38951 22.3852L11.7788 31.4486C12.0621 32.5233 13.0343 33.2718 14.1456 33.271C15.1418 33.2703 16.0253 32.6677 16.4006 31.7685L20.1309 27.78L26.5374 32.6917L26.6285 32.7314C27.2106 32.9854 27.7544 33.0659 28.2516 32.998C28.7481 32.9301 29.1426 32.722 29.439 32.4848C29.7306 32.2515 29.9305 31.9882 30.0562 31.7899C30.1201 31.6892 30.1677 31.6006 30.2007 31.534C30.2173 31.5005 30.2304 31.4722 30.2402 31.4502L30.2525 31.4218L30.2568 31.4113L30.2586 31.407ZM11.7545 21.7617C11.7002 21.5557 11.7855 21.3382 11.9653 21.224L28.1439 10.9499C28.1439 10.9499 29.0955 10.3722 29.0615 10.9499C29.0615 10.9499 29.2313 11.0519 28.7214 11.5276C28.2378 11.9794 17.1905 22.6451 16.0727 23.7244C16.0081 23.7867 15.9696 23.8581 15.9469 23.9449L14.1438 30.8251L11.7545 21.7617Z" fill="white"/>
</svg>
