<svg width="14" height="14" viewBox="0 0 14 14" fill="none" xmlns="http://www.w3.org/2000/svg">
<path fill-rule="evenodd" clip-rule="evenodd" d="M10.8599 11.2539L10.8602 11.2529L10.87 11.2286L12.5465 2.77618V2.74873C12.5465 2.53813 12.4686 2.35428 12.2993 2.244C12.1511 2.14747 11.9807 2.1406 11.8613 2.14967C11.7349 2.15926 11.6158 2.1908 11.5333 2.21705C11.4908 2.23056 11.4553 2.24357 11.4299 2.25342C11.4172 2.25836 11.4068 2.26255 11.3993 2.26567L11.3919 2.26878L2.04463 5.93559L2.04205 5.93652C2.03701 5.93835 2.03033 5.94084 2.02227 5.94398C2.00619 5.95024 1.98431 5.95919 1.9586 5.97084C1.90813 5.99372 1.8384 6.02902 1.76768 6.07745C1.64756 6.1597 1.41884 6.35444 1.45746 6.66316C1.48945 6.91888 1.66573 7.08128 1.78456 7.16537C1.84827 7.21044 1.90921 7.24295 1.95384 7.26419C1.97645 7.27496 1.99566 7.2832 2.00996 7.28903C2.01714 7.29195 2.02313 7.29428 2.02777 7.29604L2.03371 7.29826L2.03751 7.29967L3.67289 7.85023C3.66737 7.95284 3.67754 8.05746 3.70475 8.16068L4.52393 11.2681C4.62106 11.6366 4.95438 11.8932 5.33542 11.893C5.67696 11.8927 5.97987 11.6861 6.10856 11.3778L7.3875 10.0103L9.58402 11.6943L9.61526 11.708C9.81482 11.7951 10.0013 11.8226 10.1717 11.7994C10.342 11.7761 10.4772 11.7047 10.5789 11.6234C10.6789 11.5434 10.7474 11.4531 10.7905 11.3852C10.8124 11.3506 10.8287 11.3203 10.84 11.2974C10.8457 11.2859 10.8502 11.2762 10.8535 11.2687L10.8578 11.2589L10.8593 11.2553L10.8599 11.2539ZM4.51561 7.94691C4.49699 7.87629 4.52622 7.80173 4.58787 7.76258L10.1348 4.24001C10.1348 4.24001 10.4611 4.04194 10.4494 4.24001C10.4494 4.24001 10.5077 4.27499 10.3328 4.43808C10.167 4.59298 6.37937 8.24981 5.99612 8.61984C5.97399 8.6412 5.96079 8.6657 5.95299 8.69544L5.33478 11.0544L4.51561 7.94691Z" fill="white"/>
</svg>
