<svg width="26" height="26" viewBox="0 0 26 26" fill="none" xmlns="http://www.w3.org/2000/svg">
<path fill-rule="evenodd" clip-rule="evenodd" d="M21.0417 21.8621L21.0425 21.8601L21.0628 21.8095L24.5554 4.20028V4.14309C24.5554 3.70434 24.3933 3.32132 24.0406 3.09157C23.7318 2.89047 23.3768 2.87615 23.1279 2.89504C22.8647 2.91502 22.6165 2.98073 22.4446 3.03542C22.3562 3.06356 22.2822 3.09067 22.2293 3.11118C22.2028 3.12147 22.1813 3.13021 22.1656 3.13671L22.1502 3.14318L2.67663 10.7824L2.67127 10.7843C2.66075 10.7881 2.64685 10.7933 2.63005 10.7999C2.59656 10.8129 2.55097 10.8316 2.49742 10.8558C2.39227 10.9035 2.24699 10.977 2.09965 11.0779C1.84941 11.2493 1.37291 11.655 1.45337 12.2982C1.52002 12.8309 1.88725 13.1692 2.13483 13.3444C2.26755 13.4383 2.39452 13.506 2.48749 13.5503C2.5346 13.5727 2.57462 13.5899 2.60442 13.602C2.61936 13.6081 2.63185 13.613 2.64152 13.6167L2.65389 13.6213L2.66181 13.6242L6.06884 14.7712C6.05734 14.985 6.07854 15.2029 6.13523 15.418L7.84185 21.8919C8.0442 22.6595 8.73862 23.1942 9.53245 23.1936C10.244 23.1931 10.8751 22.7626 11.1432 22.1204L13.8076 19.2714L18.3837 22.7798L18.4488 22.8082C18.8645 22.9896 19.253 23.0471 19.6081 22.9986C19.9628 22.9501 20.2446 22.8014 20.4563 22.632C20.6646 22.4654 20.8074 22.2773 20.8972 22.1356C20.9428 22.0637 20.9768 22.0005 21.0004 21.9529C21.0122 21.929 21.0216 21.9087 21.0286 21.893L21.0373 21.8727L21.0404 21.8652L21.0417 21.8621ZM7.82451 14.9726C7.78572 14.8255 7.84661 14.6702 7.97507 14.5886L19.5312 7.24993C19.5312 7.24993 20.211 6.83728 20.1867 7.24993C20.1867 7.24993 20.308 7.3228 19.9437 7.66257C19.5983 7.98528 11.7073 15.6037 10.9089 16.3746C10.8628 16.4191 10.8353 16.4701 10.8191 16.5321L9.53113 21.4465L7.82451 14.9726Z" fill="white"/>
</svg>
