<svg width="20" height="20" viewBox="0 0 20 20" fill="none" xmlns="http://www.w3.org/2000/svg">
<path fill-rule="evenodd" clip-rule="evenodd" d="M3 10C3 6.13401 6.13401 3 10 3C13.866 3 17 6.13401 17 10C17 13.866 13.866 17 10 17C6.13401 17 3 13.866 3 10ZM10.75 7.39524C10.75 6.98103 10.4142 6.64524 10 6.64524C9.58579 6.64524 9.25 6.98103 9.25 7.39524V9.7323C9.25 10.1502 9.45888 10.5405 9.80662 10.7724L11.5375 11.9263C11.8821 12.156 12.3478 12.0629 12.5775 11.7182C12.8073 11.3736 12.7142 10.9079 12.3695 10.6782L10.75 9.5985V7.39524Z" fill="#778187"/>
</svg>
