<svg width="20" height="21" viewBox="0 0 20 21" fill="none" xmlns="http://www.w3.org/2000/svg">
<path fill-rule="evenodd" clip-rule="evenodd" d="M3 10.5C3 6.63401 6.13401 3.5 10 3.5C13.866 3.5 17 6.63401 17 10.5C17 14.366 13.866 17.5 10 17.5C6.13401 17.5 3 14.366 3 10.5ZM10.75 7.89524C10.75 7.48103 10.4142 7.14524 10 7.14524C9.58579 7.14524 9.25 7.48103 9.25 7.89524V10.2323C9.25 10.6502 9.45888 11.0405 9.80662 11.2724L11.5375 12.4263C11.8821 12.656 12.3478 12.5629 12.5775 12.2182C12.8073 11.8736 12.7142 11.4079 12.3695 11.1782L10.75 10.0985V7.89524Z" fill="#778187"/>
</svg>
