<svg width="51" height="50" viewBox="0 0 51 50" fill="none" xmlns="http://www.w3.org/2000/svg">
<path fill-rule="evenodd" clip-rule="evenodd" d="M5.85742 15.6248C5.85742 9.95401 10.4545 5.35693 16.1253 5.35693H33.9824C39.6532 5.35693 44.2503 9.95401 44.2503 15.6248V33.4819C44.2503 39.1527 39.6532 43.7498 33.9824 43.7498H16.1253C10.4545 43.7498 5.85742 39.1527 5.85742 33.4819V15.6248ZM25.8039 15.6248C25.8039 15.2106 25.4681 14.8748 25.0539 14.8748C24.6396 14.8748 24.3039 15.2106 24.3039 15.6248V24.3034C24.3039 24.6968 24.4891 25.0673 24.8039 25.3034L31.7467 30.5105C32.0781 30.759 32.5482 30.6919 32.7967 30.3605C33.0452 30.0291 32.9781 29.559 32.6467 29.3105L25.8039 24.1784V15.6248Z" fill="#778187"/>
</svg>
