<svg width="26" height="26" viewBox="0 0 26 26" fill="none" xmlns="http://www.w3.org/2000/svg">
<path fill-rule="evenodd" clip-rule="evenodd" d="M20.5917 19.4992C20.6426 19.5059 20.6936 19.5129 20.7445 19.52L21.0003 19.5559C22.1142 19.7122 23.1108 18.8632 23.1108 17.758V16.9145C23.1108 16.1241 22.6049 15.4189 21.8471 15.1531C20.9715 14.8459 20.0676 14.6459 19.1551 14.5531C20.1071 15.2415 20.6977 16.3561 20.6977 17.5722V18.6195C20.6977 18.9236 20.6608 19.2182 20.5917 19.4992ZM16.7324 13.4309C17.1119 13.5876 17.5287 13.6742 17.9662 13.6742C19.7259 13.6742 21.1525 12.2729 21.1525 10.5444C21.1525 8.81582 19.7259 7.41455 17.9662 7.41455C17.914 7.41455 17.8622 7.41578 17.8106 7.41821C18.1306 8.09973 18.3094 8.86068 18.3094 9.6634C18.3094 11.138 17.7059 12.4717 16.7324 13.4309Z" fill="#778187"/>
<path fill-rule="evenodd" clip-rule="evenodd" d="M5.40736 19.4992C5.3564 19.5059 5.30546 19.5129 5.25454 19.52L4.9987 19.5559C3.88483 19.7122 2.88826 18.8632 2.88826 17.758V16.9145C2.88826 16.1241 3.39413 15.4189 4.15197 15.1531C5.02754 14.8459 5.93146 14.6459 6.84394 14.5531C5.89187 15.2415 5.30137 16.3561 5.30137 17.5722V18.6195C5.30137 18.9236 5.33818 19.2182 5.40736 19.4992ZM9.2666 13.4309C8.88714 13.5876 8.4703 13.6742 8.03287 13.6742C6.27312 13.6742 4.84656 12.2729 4.84656 10.5444C4.84656 8.81582 6.27312 7.41455 8.03287 7.41455C8.08501 7.41455 8.13687 7.41578 8.1884 7.41821C7.86841 8.09973 7.68958 8.86068 7.68958 9.6634C7.68958 11.138 8.2931 12.4717 9.2666 13.4309Z" fill="#778187"/>
<path fill-rule="evenodd" clip-rule="evenodd" d="M16.9069 9.66353C16.9069 7.51745 15.1672 5.77771 13.0211 5.77771C10.875 5.77771 9.13528 7.51745 9.13528 9.66353C9.13528 11.8096 10.875 13.5494 13.0211 13.5494C15.1672 13.5494 16.9069 11.8096 16.9069 9.66353Z" fill="#778187"/>
<path fill-rule="evenodd" clip-rule="evenodd" d="M8.28822 15.3855C11.3488 14.2924 14.6934 14.2924 17.754 15.3855C18.6782 15.7155 19.2951 16.591 19.2951 17.5724V18.6196C19.2951 19.9918 18.0798 21.0459 16.7214 20.8518L16.4094 20.8072C14.1619 20.4862 11.8803 20.4862 9.63283 20.8072L9.32084 20.8518C7.96242 21.0459 6.74707 19.9918 6.74707 18.6196V17.5724C6.74707 16.591 7.36401 15.7155 8.28822 15.3855Z" fill="#778187"/>
</svg>
