<svg width="24" height="24" viewBox="0 0 24 24" fill="none" xmlns="http://www.w3.org/2000/svg">
<path fill-rule="evenodd" clip-rule="evenodd" d="M1.67934 7.10852C2.25543 13.2188 5.15354 17.0636 10.0395 18.1988C10.7815 18.3713 11.8487 18.5138 12.4108 18.5155L13.433 18.5187V16.2915C13.433 13.7281 13.4166 13.7432 15.2609 14.6031C16.5538 15.2061 17.5405 16.1997 18.2246 17.5877L18.6836 18.5187H20.5744H22.4652L22.0313 17.4339C21.7929 16.8375 21.3218 15.9545 20.9848 15.4719C20.3011 14.4928 18.5096 12.7749 17.7596 12.3793C17.2805 12.1267 17.2965 12.0989 18.575 10.9586C19.855 9.81677 21.1587 7.69395 21.5196 6.16314L21.6573 5.57983H19.9415H18.2259L17.8536 6.54049C17.1622 8.32541 15.4169 10.1072 13.9241 10.5524C13.4523 10.6932 13.4461 10.6663 13.386 8.19029L13.3254 5.68589L11.6576 5.62395L9.98975 5.56201V10.0253C9.98975 12.4801 9.93659 14.4885 9.87139 14.4885C9.4539 14.4885 8.39705 13.7139 7.55454 12.7902C6.35329 11.4732 5.72727 9.90416 5.41824 7.43581L5.18604 5.57983H3.36049H1.53516L1.67934 7.10852Z" fill="white"/>
</svg>
