<svg width="51" height="50" viewBox="0 0 51 50" fill="none" xmlns="http://www.w3.org/2000/svg">
<path d="M11.1663 31.25C6.56217 31.25 2.83301 34.9792 2.83301 39.5833C2.83301 41.1458 3.27051 42.625 4.04134 43.875C5.47884 46.2917 8.12467 47.9167 11.1663 47.9167C14.208 47.9167 16.8538 46.2917 18.2913 43.875C19.0622 42.625 19.4997 41.1458 19.4997 39.5833C19.4997 34.9792 15.7705 31.25 11.1663 31.25ZM15.2705 38.8958L10.833 43C10.5413 43.2708 10.1455 43.4167 9.77051 43.4167C9.37467 43.4167 8.97884 43.2708 8.66634 42.9583L6.60384 40.8958C5.99967 40.2917 5.99967 39.2917 6.60384 38.6875C7.20801 38.0833 8.20801 38.0833 8.81217 38.6875L9.81217 39.6875L13.1455 36.6042C13.7705 36.0208 14.7705 36.0625 15.3538 36.6875C15.9372 37.3125 15.8955 38.3125 15.2705 38.8958Z" fill="#778187"/>
<path d="M45.542 26.0415H40.3337C38.042 26.0415 36.167 27.9165 36.167 30.2082C36.167 32.4998 38.042 34.3748 40.3337 34.3748H45.542C46.1253 34.3748 46.5837 33.9165 46.5837 33.3332V27.0832C46.5837 26.4998 46.1253 26.0415 45.542 26.0415Z" fill="#778187"/>
<path d="M35.1875 11.25C35.8125 11.8542 35.2917 12.7917 34.4167 12.7917L17.1667 12.7708C16.1667 12.7708 15.6667 11.5625 16.375 10.8542L20.0209 7.1875C23.1042 4.125 28.0834 4.125 31.1667 7.1875L35.1042 11.1667C35.125 11.1875 35.1667 11.2292 35.1875 11.25Z" fill="#778187"/>
<path d="M46.3122 38.8752C45.0413 43.1668 41.3747 45.8335 36.3747 45.8335H22.833C22.0205 45.8335 21.4997 44.9377 21.833 44.1877C22.458 42.7293 22.8538 41.0835 22.8538 39.5835C22.8538 33.271 17.708 28.1252 11.3955 28.1252C9.81218 28.1252 8.27051 28.4585 6.85384 29.0835C6.08301 29.4168 5.14551 28.896 5.14551 28.0627V25.0002C5.14551 19.3335 8.56218 15.3752 13.8747 14.7085C14.3955 14.6252 14.958 14.5835 15.5413 14.5835H36.3747C36.9163 14.5835 37.4372 14.6043 37.9372 14.6877C42.1455 15.1668 45.1872 17.7293 46.3122 21.5418C46.5205 22.2293 46.0205 22.9168 45.3122 22.9168H40.5413C36.0205 22.9168 32.4372 27.0418 33.4163 31.7293C34.1038 35.146 37.2705 37.5002 40.7497 37.5002H45.3122C46.0413 37.5002 46.5205 38.2085 46.3122 38.8752Z" fill="#778187"/>
</svg>
