<svg width="38" height="38" viewBox="0 0 38 38" fill="none" xmlns="http://www.w3.org/2000/svg">
<path fill-rule="evenodd" clip-rule="evenodd" d="M0.799805 37.1155C1.78571 33.9324 2.92844 30.9062 3.97315 27.7821C-2.95209 15.6701 5.61826 2.03486 17.2264 0.902218C28.1864 -0.167325 37.1725 7.70499 37.1998 18.4488C37.2283 29.7851 26.2336 39.3044 13.8664 35.4353C12.9335 35.1435 11.7792 34.1925 10.693 34.1286C9.17506 34.0392 7.1857 35.1291 5.65298 35.622C3.97296 36.1624 2.51212 36.704 0.799805 37.1155ZM11.0664 30.7688C21.0534 36.8298 33.0119 30.0315 34.0264 20.1288C34.9445 11.1642 27.7865 3.18767 18.1597 3.88887C7.16927 4.68921 0.567564 17.8082 7.333 27.4087C6.7341 29.0499 6.17366 30.7296 5.65298 32.4488C7.48664 31.9179 9.17693 31.2437 11.0664 30.7688Z" fill="white"/>
<path fill-rule="evenodd" clip-rule="evenodd" d="M14.986 10.0487C16.0365 12.246 17.6615 15.4961 14.986 16.9555C16.3448 19.8279 18.5912 21.8126 21.5192 23.1155C22.493 22.4714 23.1324 21.493 23.946 20.6889C25.6456 21.3537 27.2344 22.1292 28.6125 23.1155C28.7542 26.3267 26.0481 27.5142 23.7593 27.4088C18.9306 27.1866 12.294 21.0862 10.6927 16.5821C9.7425 13.9096 10.8354 8.79808 14.986 10.0487Z" fill="white"/>
</svg>
