<svg width="14" height="14" viewBox="0 0 14 14" fill="none" xmlns="http://www.w3.org/2000/svg">
<path fill-rule="evenodd" clip-rule="evenodd" d="M0.759766 13.211C1.09779 12.1197 1.48958 11.0821 1.84777 10.011C-0.526599 5.85835 2.41181 1.18341 6.39175 0.795074C10.1495 0.428374 13.2304 3.12745 13.2397 6.81104C13.2495 10.6978 9.47993 13.9615 5.23973 12.635C4.91989 12.5349 4.52413 12.2089 4.15173 12.187C3.63128 12.1563 2.94922 12.53 2.42371 12.699C1.84771 12.8843 1.34684 13.07 0.759766 13.211ZM4.27975 11.035C7.70384 13.1131 11.8039 10.7823 12.1517 7.38704C12.4665 4.31345 10.0123 1.57866 6.71172 1.81907C2.94358 2.09347 0.68014 6.59143 2.99972 9.88303C2.79438 10.4457 2.60223 11.0216 2.42371 11.611C3.0524 11.429 3.63192 11.1979 4.27975 11.035Z" fill="white"/>
<path fill-rule="evenodd" clip-rule="evenodd" d="M5.62359 3.93117C5.98376 4.68454 6.54089 5.79885 5.62359 6.2992C6.08944 7.28402 6.85964 7.96449 7.86354 8.4112C8.19741 8.19037 8.41663 7.85491 8.69558 7.57923C9.27831 7.80716 9.82301 8.07305 10.2955 8.4112C10.3441 9.5122 9.41631 9.91935 8.63157 9.88319C6.97601 9.80702 4.7006 7.71543 4.1516 6.17118C3.8258 5.25491 4.20051 3.50238 5.62359 3.93117Z" fill="white"/>
</svg>
