<svg width="26" height="26" viewBox="0 0 26 26" fill="none" xmlns="http://www.w3.org/2000/svg">
<path fill-rule="evenodd" clip-rule="evenodd" d="M0 25.9395C0.704219 23.6659 1.52045 21.5043 2.26667 19.2728C-2.67993 10.6214 3.44175 0.88194 11.7333 0.0729083C19.5618 -0.691051 25.9805 4.93203 26 12.6062C26.0204 20.7035 18.167 27.503 9.33327 24.7394C8.66692 24.5309 7.84242 23.8517 7.06659 23.8061C5.98233 23.7422 4.56135 24.5207 3.46655 24.8727C2.26654 25.2588 1.22308 25.6456 0 25.9395ZM7.33329 21.4062C14.4668 25.7355 23.0087 20.8796 23.7333 13.8062C24.3891 7.40287 19.2762 1.70537 12.3999 2.20623C4.54962 2.7779 -0.165886 12.1486 4.66657 19.0061C4.23878 20.1784 3.83847 21.3782 3.46655 22.6062C4.77631 22.2269 5.98366 21.7454 7.33329 21.4062Z" fill="white"/>
<path fill-rule="evenodd" clip-rule="evenodd" d="M10.1334 6.60615C10.8837 8.17567 12.0444 10.4972 10.1334 11.5395C11.1039 13.5913 12.7085 15.0089 14.7999 15.9396C15.4955 15.4795 15.9522 14.7806 16.5334 14.2063C17.7474 14.6811 18.8822 15.2351 19.8666 15.9396C19.9678 18.2333 18.0349 19.0815 16.4 19.0062C12.9509 18.8475 8.21047 14.49 7.06674 11.2729C6.38799 9.36395 7.16862 5.71284 10.1334 6.60615Z" fill="white"/>
</svg>
