<svg width="248" height="50" viewBox="0 0 248 50" fill="none" xmlns="http://www.w3.org/2000/svg">
<path d="M22.0876 0L27.2108 8.88618L19.4127 12.8381C10.8515 17.1754 7.67782 27.8222 12.4534 36.1568L19.7225 48.8664H7.91206L3.63521 41.4613C-4.13264 27.9884 0.982961 10.7299 14.8412 3.68746L22.0876 0Z" fill="#EA4335"/>
<path d="M23.289 48.8739H34.9862L23.9842 29.6281C23.1001 28.0866 23.5308 26.122 24.9741 25.0868L30.5355 34.7362L39.5879 30.1344L28.8429 11.5082L20.667 15.6717C13.6624 19.2382 11.1008 27.9733 15.0603 34.7739L23.289 48.8739Z" fill="#EA4335"/>
<path fill-rule="evenodd" clip-rule="evenodd" d="M82.8932 3.10562C85.4774 1.28456 88.6813 0.377808 92.5274 0.377808C96.3584 0.377808 99.5699 1.28456 102.162 3.10562C104.746 4.89646 106.038 7.4807 106.038 10.9113V11.1077C106.038 14.6667 104.738 17.3341 102.162 19.1551C99.5699 20.9838 96.3735 21.9056 92.5425 21.9056C88.7039 21.9056 85.5001 20.9838 82.9234 19.1551C80.3694 17.3341 79.0848 14.6743 79.0848 11.1077V10.9113C79.047 7.4807 80.3316 4.89646 82.8932 3.10562ZM86.0517 16.586C87.7443 17.8101 89.9129 18.4297 92.5198 18.4524C95.1268 18.4751 97.2803 17.8555 98.988 16.6087C100.696 15.3392 101.557 13.5182 101.557 11.1908V10.8886C101.557 8.6217 100.711 6.89131 99.0031 5.70498C97.3181 4.5262 95.1494 3.95192 92.535 3.9217C89.9054 3.89903 87.7367 4.46575 86.0441 5.67476C84.3515 6.88376 83.4977 8.62926 83.4977 10.881V11.1682C83.5052 13.5257 84.3591 15.3392 86.0517 16.586Z" fill="#4E5A61"/>
<path fill-rule="evenodd" clip-rule="evenodd" d="M115.338 15.6415V21.1803H111.038V1.06549H123.37C125.894 1.06549 127.707 1.72289 128.871 2.96967C130.05 4.23157 130.639 6.00729 130.639 8.37241C130.639 10.5788 130.042 12.3319 128.886 13.6694C127.737 14.9917 125.894 15.6718 123.302 15.6567L115.338 15.6415ZM115.338 4.59427V12.3848H122.199C123.74 12.3848 124.874 12.0599 125.569 11.3194C126.234 10.6015 126.551 9.64942 126.551 8.46308C126.551 7.25408 126.234 6.27932 125.561 5.60681C124.881 4.90408 123.733 4.58671 122.206 4.58671H115.345L115.338 4.59427Z" fill="#4E5A61"/>
<path fill-rule="evenodd" clip-rule="evenodd" d="M150.773 16.5559H137.58L135.033 21.1955H129.993L141.6 1.03534H146.745L158.352 21.1955H153.297L150.773 16.5559ZM139.325 13.3747H149.043L144.343 4.79836H144.025L139.325 13.3747Z" fill="#4E5A61"/>
<path fill-rule="evenodd" clip-rule="evenodd" d="M73.671 2.962C75.4542 4.22389 76.3459 6.11296 76.3459 8.66698C76.3459 11.1606 75.4618 13.0421 73.7012 14.3266C71.933 15.6263 69.9911 16.2913 66.1147 16.2913H64.4296V21.1877H60.1301V16.2913H59.3291C55.4301 16.2913 52.6192 15.6263 50.8586 14.3266C49.1055 13.0421 48.2139 11.1681 48.2139 8.66698C48.2139 6.11296 49.1131 4.23145 50.9039 2.96955C52.7098 1.68499 55.4679 1.02759 59.2385 1.02759H65.3062C69.1145 1.02003 71.8877 1.68499 73.671 2.962ZM64.4372 4.4128V13.1327H65.3364C67.7695 13.1327 69.515 12.7927 70.5351 12.0673C71.5552 11.3268 72.0615 10.216 72.0615 8.77277C72.0615 7.29174 71.5628 6.16586 70.5351 5.45557C69.5301 4.73772 67.7695 4.4128 65.3364 4.4128H64.4372ZM60.1377 13.1327V4.42791H59.2385C56.8129 4.42791 55.0598 4.76795 54.0398 5.49335C53.0121 6.21875 52.5134 7.32197 52.5134 8.78033C52.5134 10.2085 53.0121 11.3117 54.0398 12.0673C55.0674 12.8078 56.8129 13.1479 59.2385 13.1479H60.1377V13.1327Z" fill="#4E5A61"/>
<path fill-rule="evenodd" clip-rule="evenodd" d="M82.8929 31.1999C85.4771 29.3789 88.681 28.4721 92.5271 28.4721C96.3581 28.4721 99.5696 29.3789 102.161 31.1999C104.746 32.9908 106.038 35.575 106.038 39.0055V39.202C106.038 42.761 104.738 45.4284 102.161 47.2494C99.5696 49.0781 96.3733 49.9999 92.5422 49.9999C88.7036 49.9999 85.4998 49.0781 82.9231 47.2494C80.3691 45.4284 79.0845 42.7686 79.0845 39.202V39.0055C79.0543 35.575 80.3237 32.9832 82.8929 31.1999ZM86.059 44.6879C87.7516 45.912 89.9202 46.5316 92.5271 46.5543C95.134 46.5769 97.2876 45.9573 98.9953 44.7105C100.703 43.4411 101.564 41.62 101.564 39.2927V38.9904C101.564 36.7236 100.718 34.9932 99.0104 33.8068C97.3254 32.6281 95.1567 32.0538 92.5422 32.0236C89.9127 32.0009 87.744 32.5676 86.0514 33.7766C84.3588 34.9856 83.5049 36.7311 83.5049 38.9829V39.27C83.4974 41.6351 84.3512 43.4486 86.059 44.6879Z" fill="#4E5A61"/>
<path fill-rule="evenodd" clip-rule="evenodd" d="M202.278 43.7433V49.2821H198.197V29.1522H210.529C213.053 29.1522 214.866 29.8096 216.03 31.0563C217.209 32.3031 217.798 34.094 217.798 36.4515C217.798 38.6579 217.201 40.411 216.045 41.7485C214.897 43.0708 213.053 43.7509 210.461 43.7358H202.285L202.278 43.7433ZM202.278 32.6809V40.4866H209.365C210.907 40.4866 212.04 40.1616 212.736 39.4211C213.4 38.7033 213.718 37.7512 213.718 36.5649C213.718 35.3559 213.4 34.3811 212.728 33.7086C212.048 33.0059 210.899 32.6885 209.373 32.6885H202.278V32.6809Z" fill="#4E5A61"/>
<path fill-rule="evenodd" clip-rule="evenodd" d="M157.265 49.2895H145.682V29.1672H163.227V32.7866H149.77V36.9048H157.303C159.872 36.9048 161.716 37.4715 162.88 38.5521C164.058 39.6326 164.663 41.1061 164.663 42.9952C164.663 45.0051 164.058 46.5315 162.872 47.612C161.678 48.7228 159.827 49.2895 157.265 49.2895ZM156.291 39.9349H149.762V46.1386H156.291C157.794 46.1386 158.905 45.8968 159.578 45.3603C160.258 44.8238 160.567 44.0379 160.567 43.048C160.567 42.1186 160.243 41.3554 159.578 40.7812C158.905 40.1918 157.779 39.9349 156.291 39.9349Z" fill="#4E5A61"/>
<path fill-rule="evenodd" clip-rule="evenodd" d="M134.984 36.2324C134.984 36.4893 134.984 36.852 134.984 37.2827C134.984 36.8369 134.984 36.4817 134.984 36.2324ZM125.289 44.5292L134.122 29.1748H139.54V49.2972H135.226C135.226 47.0076 135.226 43.698 135.226 40.9399C135.226 39.5118 135.226 38.2121 135.226 37.2827V35.779V34.9176L126.952 49.2972H123.642L115.353 34.9025V49.2972H111.038V29.1748H116.456L125.289 44.5292Z" fill="#4E5A61"/>
<path fill-rule="evenodd" clip-rule="evenodd" d="M187.682 44.6576H174.489L171.942 49.2972H166.638L178.244 29.137H183.647L195.253 49.2972H190.198L187.682 44.6576ZM176.234 41.4764H185.952L181.252 32.9H180.934L176.234 41.4764Z" fill="#4E5A61"/>
<path fill-rule="evenodd" clip-rule="evenodd" d="M232.207 32.8623L224.968 46.0631H239.748L232.517 32.8623H232.207ZM235.2 29.0766L244.977 46.048H247.667V49.2745H217.064V46.048H219.754L229.532 29.0766H235.2Z" fill="#4E5A61"/>
<path d="M62.3534 33.8446L71.5347 49.2745H77.2945L64.6179 29.1295H59.9494L47.2646 49.2745H53.0245L62.2057 33.837H62.3534V33.8446Z" fill="#4E5A61"/>
</svg>
