<svg width="80" height="24" viewBox="0 0 80 24" fill="none" xmlns="http://www.w3.org/2000/svg">
<g clip-path="url(#clip0_5701_5956)">
<path d="M76.2722 20.8979C77.8416 20.8979 78.9534 20.6036 79.7817 19.9696V17.0942C78.9316 17.7055 77.907 18.0904 76.4684 18.0904C74.0487 18.0904 73.046 16.1432 73.046 13.064C73.046 9.82623 74.2667 8.1734 76.4902 8.1734C77.7981 8.1734 79.0842 8.64887 79.7599 9.1017V6.11302C79.0406 5.70547 77.7981 5.41113 76.0978 5.41113C71.7599 5.41113 69.5147 8.64887 69.5147 13.1772C69.5365 18.1357 71.7381 20.8979 76.2722 20.8979ZM55.0624 19.5847V16.7092C54.016 17.4564 52.2286 18.113 50.5937 18.113C48.1087 18.113 47.1713 16.8904 47.0188 14.3998H55.2149V12.5432C55.2149 7.3583 53.0133 5.41113 49.6346 5.41113C45.4929 5.41113 43.531 8.69415 43.531 13.1998C43.531 18.3847 45.9942 20.8979 50.3103 20.8979C52.4684 20.8979 54.0596 20.2866 55.0624 19.5847ZM23.9561 5.68283V11.5696H19.422V5.68283H16.0215V20.6036H19.422V14.3772H23.9561V20.6036H27.3566V5.68283H23.9561ZM42.6809 17.796H41.1768V5.68283H31.2803V6.95076C31.2803 10.596 31.0624 15.3055 29.8634 17.796H28.7735V23.9998H31.9125V20.6036H39.5201V23.9998H42.6591V17.796H42.6809ZM65.8961 20.6036H69.7545L64.3049 12.5658L69.1005 5.68283H65.6782L60.8825 12.5658V5.68283H57.482V20.6036H60.8825V13.2677L65.8961 20.6036ZM49.5474 8.1734C51.2258 8.1734 51.749 9.62245 51.749 11.5017V11.796H47.0188C47.106 9.41868 47.9343 8.1734 49.5474 8.1734ZM37.7763 17.796H32.9806C33.9179 15.5545 34.1795 11.4791 34.1795 8.89792V8.44509H37.7763V17.796Z" fill="black"/>
<path d="M13.188 20.6038H9.72207V2.78491H8.17439C5.3406 2.78491 3.85831 4.2566 3.85831 6.45283C3.85831 8.9434 4.88283 10.0981 6.99727 11.5698L8.74114 12.7925L3.72752 20.6038H0L4.51226 13.6302C1.91826 11.7057 0.457766 9.82641 0.457766 6.6566C0.457766 2.69434 3.11717 0 8.15259 0H13.1662V20.6038H13.188Z" fill="#FC3F1D"/>
</g>
<defs>
<clipPath id="clip0_5701_5956">
<rect width="80" height="24" fill="white"/>
</clipPath>
</defs>
</svg>
