<svg width="283" height="260" viewBox="0 0 283 260" fill="none" xmlns="http://www.w3.org/2000/svg">
<path opacity="0.9" d="M83.0472 -41.6427C82.7929 -41.8971 82.3805 -41.8971 82.1261 -41.6427C81.8717 -41.3884 81.8717 -40.9759 82.1261 -40.7216C96.7265 -26.1212 96.7265 -2.44917 82.1261 12.1513C81.8718 12.4056 81.8718 12.818 82.1261 13.0724C82.3805 13.3268 82.7929 13.3268 83.0472 13.0724C97.6477 -1.52804 121.32 -1.52804 135.92 13.0724C136.174 13.3268 136.587 13.3268 136.841 13.0724C137.096 12.818 137.096 12.4056 136.841 12.1513C122.241 -2.44917 122.241 -26.1212 136.841 -40.7216C137.096 -40.976 137.096 -41.3884 136.841 -41.6427C136.587 -41.8971 136.174 -41.8971 135.92 -41.6427C121.32 -27.0423 97.6477 -27.0423 83.0472 -41.6427Z" fill="#f0f5f8"/>
<path opacity="0.9" d="M247.141 122.452C246.887 122.198 246.474 122.198 246.22 122.452C245.965 122.706 245.965 123.119 246.22 123.373C260.82 137.973 260.82 161.645 246.22 176.246C245.966 176.5 245.966 176.913 246.22 177.167C246.474 177.421 246.887 177.421 247.141 177.167C261.741 162.567 285.413 162.567 300.014 177.167C300.268 177.421 300.681 177.421 300.935 177.167C301.189 176.913 301.189 176.5 300.935 176.246C286.335 161.645 286.335 137.973 300.935 123.373C301.189 123.119 301.189 122.706 300.935 122.452C300.681 122.198 300.268 122.198 300.014 122.452C285.413 137.052 261.741 137.052 247.141 122.452Z" fill="#f0f5f8"/>
<path opacity="0.9" d="M137.762 13.0725C137.508 12.8181 137.095 12.8181 136.841 13.0725C136.587 13.3269 136.587 13.7393 136.841 13.9936C151.441 28.5941 151.441 52.266 136.841 66.8665C136.587 67.1208 136.587 67.5332 136.841 67.7876C137.095 68.042 137.508 68.042 137.762 67.7876C152.363 53.1872 176.035 53.1872 190.635 67.7876C190.889 68.042 191.302 68.042 191.556 67.7876C191.81 67.5332 191.81 67.1208 191.556 66.8665C176.956 52.266 176.956 28.5941 191.556 13.9936C191.81 13.7393 191.81 13.3269 191.556 13.0725C191.302 12.8181 190.889 12.8181 190.635 13.0725C176.035 27.6729 152.363 27.6729 137.762 13.0725Z" fill="#f0f5f8"/>
<path opacity="0.9" d="M301.857 177.167C301.602 176.913 301.19 176.913 300.936 177.167C300.681 177.421 300.681 177.834 300.936 178.088C315.536 192.689 315.536 216.361 300.936 230.961C300.681 231.215 300.681 231.628 300.936 231.882C301.19 232.136 301.602 232.136 301.857 231.882C316.457 217.282 340.129 217.282 354.73 231.882C354.984 232.136 355.396 232.136 355.651 231.882C355.905 231.628 355.905 231.215 355.651 230.961C341.05 216.361 341.05 192.689 355.651 178.088C355.905 177.834 355.905 177.421 355.651 177.167C355.396 176.913 354.984 176.913 354.73 177.167C340.129 191.767 316.457 191.767 301.857 177.167Z" fill="#f0f5f8"/>
<path opacity="0.9" d="M192.477 67.7876C192.223 67.5332 191.81 67.5332 191.556 67.7876C191.301 68.0419 191.301 68.4543 191.556 68.7087C206.156 83.3091 206.156 106.981 191.556 121.582C191.301 121.836 191.301 122.248 191.556 122.503C191.81 122.757 192.223 122.757 192.477 122.503C207.077 107.902 230.749 107.902 245.35 122.503C245.604 122.757 246.017 122.757 246.271 122.503C246.525 122.248 246.525 121.836 246.271 121.582C231.67 106.981 231.67 83.3091 246.271 68.7087C246.525 68.4543 246.525 68.0419 246.271 67.7876C246.017 67.5332 245.604 67.5332 245.35 67.7876C230.749 82.388 207.077 82.388 192.477 67.7876Z" fill="#f0f5f8"/>
<path opacity="0.9" d="M301.857 67.7366C301.602 67.4822 301.19 67.4822 300.936 67.7366C300.681 67.9909 300.681 68.4033 300.936 68.6577C315.536 83.2581 315.536 106.93 300.936 121.531C300.681 121.785 300.681 122.197 300.936 122.452C301.19 122.706 301.602 122.706 301.857 122.452C316.457 107.851 340.129 107.851 354.73 122.452C354.984 122.706 355.396 122.706 355.651 122.452C355.905 122.197 355.905 121.785 355.651 121.531C341.05 106.93 341.05 83.2581 355.651 68.6577C355.905 68.4033 355.905 67.9909 355.651 67.7366C355.396 67.4822 354.984 67.4822 354.73 67.7366C340.129 82.337 316.457 82.337 301.857 67.7366Z" fill="#f0f5f8"/>
<path opacity="0.9" d="M192.477 -41.6424C192.223 -41.8967 191.81 -41.8967 191.556 -41.6424C191.301 -41.388 191.301 -40.9756 191.556 -40.7212C206.156 -26.1208 206.156 -2.4488 191.556 12.1516C191.301 12.406 191.301 12.8184 191.556 13.0728C191.81 13.3271 192.223 13.3271 192.477 13.0728C207.077 -1.52767 230.749 -1.52768 245.35 13.0728C245.604 13.3271 246.017 13.3271 246.271 13.0728C246.525 12.8184 246.525 12.406 246.271 12.1516C231.67 -2.44881 231.67 -26.1208 246.271 -40.7212C246.525 -40.9756 246.525 -41.388 246.271 -41.6424C246.017 -41.8967 245.604 -41.8967 245.35 -41.6424C230.749 -27.0419 207.077 -27.0419 192.477 -41.6424Z" fill="#f0f5f8"/>
<path opacity="0.9" d="M247.192 13.0725C246.937 12.8181 246.525 12.8181 246.271 13.0725C246.016 13.3269 246.016 13.7393 246.271 13.9936C260.871 28.5941 260.871 52.266 246.271 66.8665C246.016 67.1208 246.016 67.5332 246.271 67.7876C246.525 68.042 246.937 68.042 247.192 67.7876C261.792 53.1872 285.464 53.1872 300.065 67.7876C300.319 68.042 300.731 68.042 300.986 67.7876C301.24 67.5332 301.24 67.1208 300.986 66.8665C286.385 52.266 286.385 28.5941 300.986 13.9936C301.24 13.7393 301.24 13.3269 300.986 13.0725C300.731 12.8181 300.319 12.8181 300.065 13.0725C285.464 27.6729 261.792 27.6729 247.192 13.0725Z" fill="#f0f5f8"/>
<path opacity="0.9" d="M301.908 -41.6426C301.653 -41.897 301.241 -41.897 300.986 -41.6426C300.732 -41.3882 300.732 -40.9758 300.986 -40.7215C315.587 -26.121 315.587 -2.44905 300.986 12.1514C300.732 12.4058 300.732 12.8182 300.986 13.0725C301.241 13.3269 301.653 13.3269 301.908 13.0725C316.508 -1.52792 340.18 -1.52792 354.78 13.0725C355.035 13.3269 355.447 13.3269 355.702 13.0725C355.956 12.8182 355.956 12.4057 355.702 12.1514C341.101 -2.44905 341.101 -26.121 355.702 -40.7215C355.956 -40.9758 355.956 -41.3882 355.702 -41.6426C355.447 -41.897 355.035 -41.897 354.78 -41.6426C340.18 -27.0422 316.508 -27.0422 301.908 -41.6426Z" fill="#f0f5f8;"/>
</svg>
