<svg width="297" height="197" viewBox="0 0 297 197" fill="none" xmlns="http://www.w3.org/2000/svg">
<path d="M381.414 -67.7228L380.849 -9.09013L322.217 -8.52517L322.782 -67.1578L381.414 -67.7228Z" fill="#E3EAEE"/>
<path d="M322.217 -8.525L321.58 50.18L262.875 50.8173L263.512 -7.88768L322.217 -8.525Z" fill="#E3EAEE"/>
<path d="M262.874 50.8175L262.309 109.45L203.677 110.015L204.242 51.3825L262.874 50.8175Z" fill="#E3EAEE"/>
<path d="M380.213 49.4703L379.505 108.105L320.87 108.813L321.579 50.1785L380.213 49.4703Z" fill="#E3EAEE"/>
<path d="M320.87 108.813L320.234 167.375L261.673 168.01L262.308 109.449L320.87 108.813Z" fill="#E3EAEE"/>
<path d="M146.809 -65.2482L146.173 -6.68635L87.6114 -6.05058L88.2472 -64.6124L146.809 -65.2482Z" fill="#E3EAEE"/>
<path d="M264.15 -66.5924L263.512 -7.88739L204.807 -7.25007L205.445 -65.9551L264.15 -66.5924Z" fill="#E3EAEE"/>
<path d="M204.808 -7.24961L204.243 51.383L145.61 51.948L146.175 -6.68466L204.808 -7.24961Z" fill="#E3EAEE"/>
</svg>
