<svg width="283" height="261" viewBox="0 0 283 261" fill="none" xmlns="http://www.w3.org/2000/svg">
<path opacity="0.9" d="M83.0468 -41.5658C82.7924 -41.8202 82.38 -41.8202 82.1256 -41.5658C81.8713 -41.3115 81.8713 -40.899 82.1256 -40.6447C96.7261 -26.0442 96.7261 -2.37226 82.1256 12.2282C81.8713 12.4825 81.8713 12.8949 82.1256 13.1493C82.38 13.4037 82.7924 13.4037 83.0468 13.1493C97.6472 -1.45113 121.319 -1.45114 135.92 13.1493C136.174 13.4037 136.586 13.4037 136.841 13.1493C137.095 12.8949 137.095 12.4825 136.841 12.2282C122.24 -2.37227 122.24 -26.0442 136.841 -40.6447C137.095 -40.899 137.095 -41.3115 136.841 -41.5658C136.586 -41.8202 136.174 -41.8202 135.92 -41.5658C121.319 -26.9654 97.6472 -26.9654 83.0468 -41.5658Z" fill="#C7D1D7"/>
<path opacity="0.9" d="M247.141 122.529C246.887 122.274 246.474 122.274 246.22 122.529C245.965 122.783 245.965 123.196 246.22 123.45C260.82 138.05 260.82 161.722 246.22 176.323C245.966 176.577 245.966 176.99 246.22 177.244C246.474 177.498 246.887 177.498 247.141 177.244C261.741 162.643 285.413 162.643 300.014 177.244C300.268 177.498 300.681 177.498 300.935 177.244C301.189 176.99 301.189 176.577 300.935 176.323C286.335 161.722 286.335 138.05 300.935 123.45C301.189 123.196 301.189 122.783 300.935 122.529C300.681 122.274 300.268 122.274 300.014 122.529C285.413 137.129 261.741 137.129 247.141 122.529Z" fill="#C7D1D7"/>
<path opacity="0.9" d="M137.762 13.1494C137.507 12.895 137.095 12.895 136.841 13.1494C136.586 13.4038 136.586 13.8162 136.841 14.0705C151.441 28.671 151.441 52.3429 136.841 66.9434C136.586 67.1977 136.586 67.6102 136.841 67.8645C137.095 68.1189 137.507 68.1189 137.762 67.8645C152.362 53.2641 176.034 53.2641 190.635 67.8645C190.889 68.1189 191.301 68.1189 191.556 67.8645C191.81 67.6101 191.81 67.1977 191.556 66.9434C176.955 52.3429 176.955 28.671 191.556 14.0705C191.81 13.8162 191.81 13.4038 191.556 13.1494C191.301 12.895 190.889 12.895 190.635 13.1494C176.034 27.7498 152.362 27.7498 137.762 13.1494Z" fill="#C7D1D7"/>
<path opacity="0.9" d="M301.856 177.244C301.602 176.989 301.19 176.989 300.935 177.244C300.681 177.498 300.681 177.911 300.935 178.165C315.536 192.765 315.536 216.437 300.935 231.038C300.681 231.292 300.681 231.705 300.935 231.959C301.19 232.213 301.602 232.213 301.856 231.959C316.457 217.358 340.129 217.358 354.729 231.959C354.984 232.213 355.396 232.213 355.65 231.959C355.905 231.705 355.905 231.292 355.65 231.038C341.05 216.437 341.05 192.765 355.65 178.165C355.905 177.911 355.905 177.498 355.65 177.244C355.396 176.989 354.984 176.989 354.729 177.244C340.129 191.844 316.457 191.844 301.856 177.244Z" fill="#C7D1D7"/>
<path opacity="0.9" d="M192.477 67.8645C192.223 67.6101 191.81 67.6101 191.556 67.8645C191.301 68.1188 191.301 68.5313 191.556 68.7856C206.156 83.3861 206.156 107.058 191.556 121.658C191.301 121.913 191.301 122.325 191.556 122.58C191.81 122.834 192.223 122.834 192.477 122.58C207.077 107.979 230.749 107.979 245.35 122.58C245.604 122.834 246.017 122.834 246.271 122.58C246.525 122.325 246.525 121.913 246.271 121.658C231.67 107.058 231.67 83.386 246.271 68.7856C246.525 68.5312 246.525 68.1188 246.271 67.8645C246.017 67.6101 245.604 67.6101 245.35 67.8645C230.749 82.4649 207.077 82.4649 192.477 67.8645Z" fill="#C7D1D7"/>
<path opacity="0.9" d="M301.856 67.8135C301.602 67.5591 301.19 67.5591 300.935 67.8135C300.681 68.0678 300.681 68.4802 300.935 68.7346C315.536 83.335 315.536 107.007 300.935 121.607C300.681 121.862 300.681 122.274 300.935 122.529C301.19 122.783 301.602 122.783 301.856 122.529C316.457 107.928 340.129 107.928 354.729 122.529C354.984 122.783 355.396 122.783 355.65 122.529C355.905 122.274 355.905 121.862 355.65 121.607C341.05 107.007 341.05 83.335 355.65 68.7346C355.905 68.4802 355.905 68.0678 355.65 67.8135C355.396 67.5591 354.984 67.5591 354.729 67.8135C340.129 82.4139 316.457 82.4139 301.856 67.8135Z" fill="#C7D1D7"/>
<path opacity="0.9" d="M192.477 -41.5654C192.223 -41.8198 191.81 -41.8198 191.556 -41.5654C191.301 -41.3111 191.301 -40.8987 191.556 -40.6443C206.156 -26.0439 206.156 -2.3719 191.556 12.2285C191.301 12.4829 191.301 12.8953 191.556 13.1497C191.81 13.404 192.223 13.404 192.477 13.1497C207.077 -1.45077 230.749 -1.45077 245.35 13.1497C245.604 13.404 246.017 13.404 246.271 13.1497C246.525 12.8953 246.525 12.4829 246.271 12.2285C231.67 -2.3719 231.67 -26.0439 246.271 -40.6443C246.525 -40.8987 246.525 -41.3111 246.271 -41.5655C246.017 -41.8198 245.604 -41.8198 245.35 -41.5655C230.749 -26.965 207.077 -26.965 192.477 -41.5654Z" fill="#C7D1D7"/>
<path opacity="0.9" d="M247.192 13.1494C246.938 12.895 246.525 12.895 246.271 13.1494C246.017 13.4038 246.017 13.8162 246.271 14.0705C260.872 28.671 260.872 52.3429 246.271 66.9434C246.017 67.1977 246.017 67.6102 246.271 67.8645C246.525 68.1189 246.938 68.1189 247.192 67.8645C261.793 53.2641 285.465 53.2641 300.065 67.8645C300.319 68.1189 300.732 68.1189 300.986 67.8645C301.241 67.6101 301.241 67.1977 300.986 66.9434C286.386 52.3429 286.386 28.671 300.986 14.0705C301.241 13.8162 301.241 13.4038 300.986 13.1494C300.732 12.895 300.319 12.895 300.065 13.1494C285.465 27.7498 261.793 27.7498 247.192 13.1494Z" fill="#C7D1D7"/>
<path opacity="0.9" d="M301.907 -41.5657C301.653 -41.8201 301.241 -41.8201 300.986 -41.5657C300.732 -41.3113 300.732 -40.8989 300.986 -40.6446C315.587 -26.0441 315.587 -2.37214 300.986 12.2283C300.732 12.4827 300.732 12.8951 300.986 13.1494C301.241 13.4038 301.653 13.4038 301.907 13.1494C316.508 -1.45101 340.18 -1.45101 354.78 13.1494C355.035 13.4038 355.447 13.4038 355.701 13.1494C355.956 12.8951 355.956 12.4827 355.701 12.2283C341.101 -2.37214 341.101 -26.0441 355.701 -40.6446C355.956 -40.8989 355.956 -41.3113 355.701 -41.5657C355.447 -41.8201 355.035 -41.8201 354.78 -41.5657C340.18 -26.9653 316.508 -26.9653 301.907 -41.5657Z" fill="#C7D1D7"/>
</svg>
