<svg width="419" height="261" viewBox="0 0 419 261" fill="none" xmlns="http://www.w3.org/2000/svg">
<g clip-path="url(#clip0_3781_55486)">
<path d="M443.766 34.6623C429.45 48.7294 429.525 71.6943 444.039 85.9561C458.553 100.218 481.924 100.292 496.24 86.2249C510.556 72.1578 510.481 49.1929 495.967 34.9311C481.453 20.6693 458.081 20.5953 443.766 34.6623Z" stroke="#E3EAEE" stroke-width="7.35008"/>
<path d="M398.905 78.2063C384.589 92.2734 384.664 115.238 399.178 129.5C413.693 143.762 437.064 143.836 451.38 129.769C465.695 115.702 465.62 92.7369 451.106 78.4751C436.592 64.2133 413.221 64.1392 398.905 78.2063Z" stroke="#E3EAEE" stroke-width="7.35008"/>
<path d="M370.593 106.562C356.19 120.715 356.228 143.74 370.73 157.99C385.232 172.24 408.664 172.278 423.068 158.125C437.471 143.972 437.433 120.947 422.931 106.697C408.429 92.4464 384.996 92.4093 370.593 106.562Z" stroke="#E3EAEE" stroke-width="7.35008"/>
<path d="M396.441 -68.2844C382.137 -54.2288 382.25 -31.2038 396.852 -16.8563C411.453 -2.5087 434.885 -2.39741 449.19 -16.4531C463.494 -30.5088 463.381 -53.5337 448.779 -67.8812C434.178 -82.2288 410.746 -82.3401 396.441 -68.2844Z" stroke="#E3EAEE" stroke-width="7.35008"/>
<path d="M367.719 -40.0627C353.415 -26.0071 353.528 -2.98215 368.13 11.3654C382.731 25.713 406.163 25.8243 420.467 11.7686C434.772 -2.28708 434.658 -25.312 420.057 -39.6596C405.456 -54.0071 382.024 -54.1184 367.719 -40.0627Z" stroke="#E3EAEE" stroke-width="7.35008"/>
<path d="M323.132 3.75024C308.828 17.8059 308.941 40.8308 323.542 55.1784C338.144 69.526 361.576 69.6373 375.88 55.5816C390.185 41.5259 390.071 18.501 375.47 4.15342C360.869 -10.1941 337.436 -10.3054 323.132 3.75024Z" stroke="#E3EAEE" stroke-width="7.35008"/>
<path d="M294.547 31.839C280.155 45.9804 280.231 69.0656 294.82 83.4015C309.41 97.7374 332.903 97.8118 347.295 83.6703C361.687 69.5289 361.611 46.4437 347.021 32.1078C332.432 17.7719 308.938 17.6976 294.547 31.839Z" stroke="#E3EAEE" stroke-width="7.35008"/>
<path d="M247.363 -70.7027C233.035 -56.6241 233.073 -33.7193 247.5 -19.5433C261.926 -5.3673 285.236 -5.33031 299.564 -19.4089C313.891 -33.4875 313.854 -56.3923 299.427 -70.5683C285 -84.7443 261.69 -84.7812 247.363 -70.7027Z" stroke="#E3EAEE" stroke-width="7.35008"/>
<path d="M219.05 -42.3456C204.636 -28.1812 204.636 -5.21622 219.05 8.94816C233.465 23.1125 256.837 23.1125 271.252 8.94816C285.666 -5.21623 285.666 -28.1812 271.252 -42.3456C256.837 -56.51 233.465 -56.51 219.05 -42.3456Z" stroke="#E3EAEE" stroke-width="7.35008"/>
</g>
<defs>
<clipPath id="clip0_3781_55486">
<rect width="419" height="260" fill="white" transform="translate(0 0.0769043)"/>
</clipPath>
</defs>
</svg>
