<svg width="419" height="261" viewBox="0 0 419 261" fill="none" xmlns="http://www.w3.org/2000/svg">
<g clip-path="url(#clip0_4532_39001)">
<path d="M265.468 -15.9559C275.119 -6.30542 275.128 9.32908 265.487 18.9705C255.845 28.6119 240.211 28.6029 230.56 18.9524C220.919 9.31098 220.919 -6.31448 230.56 -15.9559C240.202 -25.5973 255.827 -25.5973 265.468 -15.9559Z" fill="#E3EAEE"/>
<path d="M318.574 37.1496C328.224 46.8 328.233 62.4346 318.592 72.076C308.951 81.7174 293.316 81.7084 283.666 72.0579C274.024 62.4164 274.024 46.791 283.666 37.1496C293.307 27.5081 308.932 27.5081 318.574 37.1496Z" fill="#E3EAEE"/>
<path d="M367.316 -11.5924C376.967 -1.9419 376.976 13.6926 367.334 23.334C357.693 32.9755 342.058 32.9664 332.408 23.3159C322.766 13.6745 322.766 -1.95095 332.408 -11.5924C342.049 -21.2338 357.675 -21.2338 367.316 -11.5924Z" fill="#E3EAEE"/>
<path d="M371.68 90.2555C381.33 99.906 381.339 115.541 371.698 125.182C362.056 134.823 346.422 134.814 336.771 125.164C327.13 115.522 327.13 99.897 336.771 90.2555C346.413 80.6141 362.038 80.6141 371.68 90.2555Z" fill="#E3EAEE"/>
<path d="M420.422 41.5131C430.072 51.1636 430.081 66.7981 420.44 76.4395C410.798 86.0809 395.164 86.0719 385.513 76.4214C375.872 66.78 375.872 51.1545 385.513 41.5131C395.155 31.8717 410.78 31.8717 420.422 41.5131Z" fill="#E3EAEE"/>
<path d="M469.161 -7.22886C478.811 2.42163 478.82 18.0561 469.179 27.6976C459.537 37.339 443.903 37.3299 434.252 27.6795C424.611 18.038 424.611 2.41258 434.252 -7.22886C443.894 -16.8703 459.519 -16.8703 469.161 -7.22886Z" fill="#E3EAEE"/>
<path d="M424.785 143.361C434.436 153.011 434.445 168.646 424.803 178.287C415.162 187.929 399.527 187.92 389.877 178.269C380.236 168.628 380.236 153.002 389.877 143.361C399.518 133.72 415.144 133.72 424.785 143.361Z" fill="#E3EAEE"/>
</g>
<defs>
<clipPath id="clip0_4532_39001">
<rect width="419" height="260" fill="white" transform="translate(0 0.0769043)"/>
</clipPath>
</defs>
</svg>
